<?xml version="1.0" encoding="UTF-8" standalone="no"?>
<!-- Created with Inkscape (http://www.inkscape.org/) -->

<svg
   xmlns:dc="http://purl.org/dc/elements/1.1/"
   xmlns:cc="http://creativecommons.org/ns#"
   xmlns:rdf="http://www.w3.org/1999/02/22-rdf-syntax-ns#"
   xmlns:svg="http://www.w3.org/2000/svg"
   xmlns="http://www.w3.org/2000/svg"
   version="1.1"
   width="100%"
   height="100%"
   viewBox="0 0 92.993 77.317"
   id="Layer_1"
   xml:space="preserve"><metadata
     id="metadata3162"><rdf:RDF><cc:Work
         rdf:about=""><dc:format>image/svg+xml</dc:format><dc:type
           rdf:resource="http://purl.org/dc/dcmitype/StillImage" /><dc:title></dc:title></cc:Work></rdf:RDF></metadata><defs
     id="defs3160">
    <style>
      @import url(http://fonts.googleapis.com/css?family=Yanone+Kaffeesatz:400,700);
    </style>
   </defs>
     <path
     d="M 77.751,22.274 H 73.433 V 15.31 l 0.047,-0.044 -0.047,-0.063 v -0.267 h -0.188 l -1.131,-1.606 -1.131,1.606 h -2.712 v -4.302 h 0.071 V 8.915 H 67.617 V 9.488 H 67.054 V 8.915 H 66.331 V 9.488 H 65.767 V 8.915 h -0.723 v 1.721 h 0.07 v 0.573 H 60.059 V 8.756 H 59.952 V 7.911 H 58.913 L 57.802,6.333 56.691,7.911 H 55.507 V 9.632 H 46.249 V 8.118 H 45.757 V 7.481 H 42.89 v 2.294 h -2.15 v 3.298 h -1.434 l -1.148,-1.146 -1.146,1.146 H 36.008 V 9.201 h -0.43 v 2.438 h -4.303 l -1.434,1.434 h -1.865 v -2.079 h 0.217 V 9.273 h -0.646 v 0.932 H 26.759 V 9.273 h -0.646 v 0.932 H 25.324 V 9.273 h -0.646 v 1.721 h 0.285 v 3.943 H 22.24 l -2.726,2.295 v 5.042 h -4.272 c -6.404,0 -11.597,5.19 -11.597,11.595 v 7.284 c 0,6.404 5.192,11.597 11.597,11.597 h 5.051 c 2.68,11.972 13.363,20.921 26.143,20.921 12.781,0 23.463,-8.949 26.143,-20.921 h 5.172 c 6.404,0 11.596,-5.192 11.596,-11.597 v -7.284 c 0,-6.404 -5.192,-11.595 -11.596,-11.595 z"
     id="path2986"
     style="fill:none;stroke:#700606;stroke-width:7.29300022;stroke-linecap:round;stroke-miterlimit:10" /><path
     d="m 73.103,46.874 c 0,14.8 -11.998,26.797 -26.797,26.797 -14.8,0 -26.797,-11.997 -26.797,-26.797 0,-14.799 11.997,-26.797 26.797,-26.797 14.798,0 26.797,11.998 26.797,26.797"
     id="path2988"
     style="fill:#fc0303;fill-rule:evenodd" /><path
     d="m 29.655,28.667 v 19.376 h 0.011 c 0.233,8.991 7.591,16.212 16.64,16.212 9.049,0 16.406,-7.221 16.639,-16.212 h 0.012 V 28.667 H 29.655 z"
     id="path2990"
     style="fill:#ffffff;fill-rule:evenodd" /><rect
     width="3.9749999"
     height="1.045"
     x="42.206001"
     y="25.839001"
     id="rect2992"
     style="fill:#ffffff;fill-rule:evenodd" /><path
     d="m 31.196,59.552 c -0.316,-0.421 -0.582,-0.55 -0.797,-0.387 -0.058,0.042 -0.094,0.093 -0.108,0.151 -0.034,0.128 0.06,0.434 0.281,0.918 0.099,0.21 0.247,0.528 0.444,0.955 0.119,0.254 0.2,0.462 0.246,0.624 0.176,0.603 0.032,1.078 -0.43,1.427 -0.246,0.184 -0.527,0.286 -0.845,0.306 -0.728,0.043 -1.493,-0.472 -2.299,-1.542 -0.583,-0.776 -0.853,-1.448 -0.806,-2.017 0.031,-0.392 0.212,-0.746 0.541,-1.065 l 1.104,1.384 c -0.262,0.291 -0.192,0.702 0.206,1.231 0.165,0.22 0.323,0.362 0.473,0.427 0.175,0.076 0.327,0.065 0.456,-0.031 0.144,-0.108 0.179,-0.274 0.105,-0.498 -0.199,-0.413 -0.432,-0.904 -0.699,-1.474 -0.103,-0.221 -0.176,-0.405 -0.222,-0.554 -0.215,-0.669 -0.073,-1.189 0.418,-1.56 0.299,-0.225 0.642,-0.313 1.026,-0.266 0.589,0.073 1.186,0.511 1.789,1.313 0.375,0.5 0.631,0.945 0.765,1.336 0.214,0.615 0.098,1.166 -0.35,1.65 l -1.139,-1.348 c 0.2,-0.249 0.146,-0.576 -0.159,-0.98"
     id="path2994"
     style="fill:#ffffff" /><path
     d="m 33.952,64.521 -1.325,-0.919 c 0.138,-0.141 0.264,-0.243 0.378,-0.309 0.196,-0.117 0.41,-0.168 0.641,-0.151 0.447,0.027 1.033,0.292 1.758,0.794 0.728,0.505 1.191,0.937 1.394,1.295 0.222,0.396 0.179,0.814 -0.13,1.259 l -1.121,1.617 c -0.135,0.194 -0.184,0.386 -0.146,0.572 L 33.97,67.688 c 0.035,-0.108 0.087,-0.22 0.154,-0.334 -0.781,-0.162 -1.382,-0.388 -1.802,-0.68 -0.425,-0.294 -0.694,-0.616 -0.809,-0.966 -0.115,-0.351 -0.069,-0.674 0.136,-0.97 0.31,-0.447 0.753,-0.579 1.327,-0.394 0.42,0.135 1.183,0.572 2.29,1.311 0.075,-0.108 0.11,-0.209 0.104,-0.299 -0.014,-0.188 -0.171,-0.387 -0.471,-0.595 -0.16,-0.11 -0.316,-0.196 -0.471,-0.257 -0.185,-0.07 -0.345,-0.066 -0.476,0.017 m 0.952,1.706 C 34.659,66.074 34.331,65.873 33.923,65.623 33.525,65.4 33.261,65.38 33.134,65.562 c -0.047,0.07 -0.062,0.152 -0.042,0.248 0.03,0.141 0.134,0.273 0.313,0.397 0.233,0.162 0.492,0.255 0.775,0.278 0.262,0.021 0.505,-0.065 0.724,-0.258"
     id="path2996"
     style="fill:#ffffff" /><rect
     width="5.0149999"
     height="1.684"
     x="36.403"
     y="66.518997"
     transform="matrix(-0.361,0.9326,-0.9326,-0.361,115.7759,55.3947)"
     id="rect2998"
     style="fill:#ffffff" /><polygon
     points="45.735,68.658 43.046,69.938 45.479,70.287 45.329,71.342 40.616,70.667 40.769,69.604 43.456,68.332 41.191,68.008 41.341,66.967 45.884,67.617 "
     id="polygon3000"
     style="fill:#ffffff" /><path
     d="m 47.573,71.342 -0.806,-4.95 1.663,-0.271 0.254,1.563 c 0.377,-0.363 0.83,-0.588 1.359,-0.674 0.564,-0.092 1.055,-0.001 1.469,0.272 0.438,0.295 0.705,0.744 0.803,1.353 0.109,0.668 -0.039,1.213 -0.441,1.633 -0.334,0.348 -0.773,0.565 -1.322,0.654 -0.45,0.073 -0.906,0.013 -1.371,-0.181 l 0.055,0.33 -1.663,0.271 z m 2.049,-3.118 c -0.301,0.059 -0.506,0.198 -0.617,0.418 -0.082,0.168 -0.107,0.351 -0.076,0.548 0.041,0.244 0.15,0.436 0.334,0.574 0.182,0.14 0.4,0.189 0.654,0.147 0.219,-0.036 0.395,-0.127 0.527,-0.274 0.174,-0.183 0.238,-0.426 0.188,-0.731 -0.039,-0.239 -0.141,-0.423 -0.303,-0.551 -0.182,-0.144 -0.416,-0.188 -0.707,-0.131"
     id="path3002"
     style="fill:#ffffff" /><path
     d="m 54.097,68.476 -1.066,-2.021 1.49,-0.785 0.871,1.652 c 0.168,0.318 0.365,0.49 0.594,0.515 0.176,0.02 0.359,-0.021 0.553,-0.123 0.256,-0.135 0.412,-0.314 0.471,-0.538 0.053,-0.204 0.004,-0.451 -0.148,-0.74 l -0.827,-1.564 1.478,-0.779 1.754,3.323 -1.439,0.76 -0.238,-0.452 c -0.205,0.563 -0.602,1 -1.189,1.31 -0.23,0.122 -0.453,0.205 -0.67,0.25 -0.73,0.144 -1.273,-0.125 -1.634,-0.808"
     id="path3004"
     style="fill:#ffffff" /><path
     d="m 59.644,62.104 0.404,0.437 c -0.041,-0.232 -0.021,-0.467 0.059,-0.702 0.082,-0.235 0.23,-0.461 0.447,-0.675 l 1.008,1.09 c -0.137,0.103 -0.24,0.186 -0.311,0.25 -0.254,0.234 -0.389,0.449 -0.402,0.643 -0.012,0.16 0.057,0.322 0.207,0.485 l 1.145,1.236 -1.227,1.133 -2.557,-2.763 1.227,-1.134 z"
     id="path3006"
     style="fill:#ffffff" /><path
     d="m 64.325,62.738 0.91,-1.429 c 0.316,0.184 0.607,0.066 0.873,-0.353 0.176,-0.274 0.244,-0.511 0.207,-0.708 -0.027,-0.142 -0.121,-0.273 -0.277,-0.396 -0.025,-0.021 -0.17,-0.109 -0.43,-0.265 -0.002,0.195 -0.027,0.381 -0.076,0.557 -0.088,0.314 -0.219,0.608 -0.396,0.884 -0.289,0.454 -0.655,0.76 -1.097,0.915 -0.492,0.174 -0.973,0.112 -1.439,-0.186 -0.439,-0.279 -0.709,-0.659 -0.809,-1.138 -0.105,-0.512 0.016,-1.043 0.367,-1.594 0.27,-0.424 0.633,-0.739 1.092,-0.947 l -0.287,-0.184 0.896,-1.408 2.912,1.854 c 0.475,0.303 0.732,0.683 0.773,1.14 0.05,0.589 -0.164,1.264 -0.65,2.025 -0.418,0.658 -0.885,1.085 -1.396,1.281 -0.384,0.149 -0.775,0.132 -1.173,-0.048 m -1,-3.518 c -0.135,0.228 -0.176,0.442 -0.127,0.646 0.041,0.183 0.141,0.323 0.297,0.423 0.176,0.111 0.363,0.134 0.563,0.066 0.201,-0.067 0.369,-0.208 0.506,-0.422 0.125,-0.198 0.18,-0.397 0.162,-0.599 -0.021,-0.225 -0.128,-0.397 -0.318,-0.52 -0.203,-0.13 -0.412,-0.141 -0.627,-0.032 -0.18,0.087 -0.333,0.234 -0.456,0.438"
     id="path3008"
     style="fill:#ffffff" /><polygon
     points="73.247,14.938 72.114,13.331 70.983,14.938 68.272,14.938 68.272,10.636 68.343,10.636 68.343,8.915 67.62,8.915 67.62,9.488 67.056,9.488 67.056,8.915 66.333,8.915 66.333,9.488 65.769,9.488 65.769,8.915 65.046,8.915 65.046,10.636 65.116,10.636 65.116,11.209 59.954,11.209 59.954,7.912 58.915,7.912 57.804,6.334 56.692,7.912 55.511,7.912 55.511,9.632 45.759,9.632 45.759,7.481 42.89,7.481 42.89,9.775 40.739,9.775 40.739,13.073 39.306,13.073 38.159,11.927 37.011,13.073 36.007,13.073 36.007,9.201 35.577,9.201 35.577,11.64 31.274,11.64 29.841,13.073 27.977,13.073 27.977,10.995 28.192,10.995 28.192,9.273 27.547,9.273 27.547,10.206 26.759,10.206 26.759,9.273 26.113,9.273 26.113,10.206 25.325,10.206 25.325,9.273 24.679,9.273 24.679,10.995 24.965,10.995 24.965,14.938 22.241,14.938 19.516,17.232 19.516,23.542 24.965,23.542 25.396,23.542 27.403,23.542 27.977,23.542 40.739,23.542 40.883,23.542 42.89,23.542 43.319,23.542 45.47,23.542 45.759,23.542 55.511,23.542 56.37,23.542 59.812,23.542 59.954,23.542 65.116,23.542 65.69,23.542 67.556,23.542 68.272,23.542 73.435,23.542 73.435,15.312 73.479,15.267 73.435,15.205 73.435,14.938 "
     id="polygon3010"
     style="fill:#d80505;fill-rule:evenodd" /><rect
     width="1.359"
     height="13.697"
     x="44.891998"
     y="8.118"
     id="rect3012"
     style="fill:#fc0303;fill-rule:evenodd" /><rect
     width="5.974"
     height="8.467"
     x="35.355"
     y="13.578"
     id="rect3014"
     style="fill:#fc0303;fill-rule:evenodd" /><polygon
     points="55.118,9.71 51.737,13.783 51.737,22.045 45.765,22.045 45.765,9.71 "
     id="polygon3016"
     style="fill:#fc0303;fill-rule:evenodd" /><rect
     width="4.9710002"
     height="11.024"
     x="61.208"
     y="11.396"
     id="rect3018"
     style="fill:#fc0303;fill-rule:evenodd" /><rect
     width="1.359"
     height="11.67"
     x="26.389"
     y="10.375"
     id="rect3020"
     style="fill:#fc0303;fill-rule:evenodd" /><rect
     width="2.8110001"
     height="13.364"
     x="57.250999"
     y="8.7559996"
     id="rect3022"
     style="fill:#fc0303;fill-rule:evenodd" /><rect
     width="0.977"
     height="12.422"
     x="67.181"
     y="9.9989996"
     id="rect3024"
     style="fill:#fc0303;fill-rule:evenodd" /><path
     d="m 89.282,41.154 c 0,6.403 -5.191,11.596 -11.594,11.596 H 15.178 C 8.775,52.75 3.583,47.558 3.583,41.154 V 33.87 c 0,-6.404 5.191,-11.596 11.595,-11.596 h 62.51 c 6.402,0 11.594,5.191 11.594,11.596 v 7.284 z"
     id="path3026"
     style="fill:#ffffff;fill-rule:evenodd" /><g
     transform="translate(0.8105,0)"
     id="g3069"><path
       d="m 13.446,41.544 5.752,-15.625 h 5.591 l 6.581,17.818 h 1.445 V 44.46 H 20.964 v -0.723 h 1.926 l -1.926,-5.484 h -5.378 c -0.071,0.25 -0.349,0.999 -0.829,2.247 -0.357,0.946 -0.535,1.551 -0.535,1.819 0.053,0.553 0.223,0.928 0.508,1.124 0.285,0.196 0.793,0.294 1.525,0.294 v 0.723 h -5.164 v -0.723 c 0.643,0 1.15,-0.204 1.525,-0.615 0.303,-0.321 0.58,-0.847 0.83,-1.578 m 7.25,-4.014 -2.463,-6.825 -2.398,6.825 h 4.861 z"
       id="path3028"
       style="fill:#fc0303" /><polygon
       points="46.085,26.561 44.052,26.561 44.052,28.829 40.404,35.646 44.052,39.118 44.052,43.684 46.032,43.684 46.032,44.406 33.726,44.406 33.726,43.684 35.759,43.684 35.759,26.561 33.726,26.561 33.726,25.839 46.085,25.839 "
       id="polygon3030"
       style="fill:#fc0303" /><path
       d="m 54.411,26.561 h -0.723 v -0.722 h 9.661 v 0.722 h -0.884 l 2.838,10.336 1.258,-4.51 -1.434,-5.823 -0.924,-0.003 v -0.722 h 10.059 v 0.722 h -1.283 l 2.43,10.2 2.402,-8.544 0.063,-0.597 c 0,-0.344 -0.098,-0.606 -0.293,-0.787 -0.197,-0.182 -0.465,-0.272 -0.803,-0.272 h -0.563 v -0.722 h 4.066 v 0.728 c -0.535,0.162 -0.936,0.513 -1.203,1.052 -0.125,0.252 -0.295,0.801 -0.508,1.645 L 74.261,44.408 69.724,44.413 67.062,34.116 64.15,44.408 H 59.654 L 54.411,26.561 z"
       id="path3032"
       style="fill:#fc0303" /><path
       d="m 46.892,25.839 h 0.936 c 0.242,0.039 0.482,0.079 0.724,0.116 3.099,0.456 5.659,2.82 6.358,5.881 0.1,0.434 0.156,0.879 0.232,1.317 v 0.935 c -0.057,0.351 -0.096,0.704 -0.176,1.049 -0.732,3.174 -2.68,5.188 -5.822,6.03 -0.43,0.115 -0.877,0.158 -1.316,0.234 h -0.936 c -0.412,-0.068 -0.828,-0.118 -1.236,-0.208 -3.938,-0.878 -6.592,-4.683 -5.965,-8.775 0.467,-3.055 2.842,-5.662 5.859,-6.344 0.443,-0.099 0.894,-0.157 1.342,-0.235 m 0.554,1.526 c 0.004,0.086 0.006,0.151 0.012,0.216 0.045,0.417 0.121,0.834 0.129,1.252 0.021,1.112 -0.121,2.208 -0.418,3.28 -0.338,1.217 -0.68,2.428 -0.518,3.719 0.105,0.85 0.305,1.672 0.645,2.454 0.059,0.137 0.23,0.277 0.375,0.313 0.4,0.096 0.758,0.25 1.08,0.508 0.084,0.067 0.244,0.104 0.344,0.075 1.018,-0.306 1.926,-0.803 2.641,-1.604 1.289,-1.443 1.666,-3.915 -0.375,-5.569 -0.52,-0.421 -1.088,-0.776 -1.627,-1.17 -0.467,-0.338 -0.941,-0.667 -1.381,-1.037 -0.379,-0.319 -0.535,-0.759 -0.469,-1.26 0.035,-0.256 0.074,-0.511 0.115,-0.781 -0.523,0.297 -0.277,-0.316 -0.553,-0.396 m -0.834,0.7 c 0.068,0.836 -0.297,1.471 -0.922,1.98 -0.234,0.191 -0.48,0.366 -0.717,0.555 -0.645,0.513 -1.326,0.983 -1.919,1.551 -1.433,1.374 -1.46,3.356 -0.524,4.85 0.502,0.801 1.219,1.359 2.061,1.762 0.354,0.168 0.73,0.287 1.102,0.412 0.076,0.025 0.176,-0.024 0.266,-0.04 -0.053,-0.082 -0.1,-0.17 -0.162,-0.243 -0.033,-0.04 -0.096,-0.051 -0.141,-0.082 -0.436,-0.303 -0.898,-0.572 -1.299,-0.916 -0.942,-0.812 -1.463,-1.834 -1.41,-3.107 0.034,-0.772 0.353,-1.437 0.811,-2.032 0.355,-0.463 0.75,-0.897 1.146,-1.33 0.426,-0.466 0.875,-0.909 1.307,-1.371 0.785,-0.841 0.67,-1.865 0.57,-2.883 -0.004,-0.046 -0.078,-0.083 -0.121,-0.123 -0.033,0.057 -0.1,0.114 -0.098,0.169 0.007,0.282 0.031,0.565 0.05,0.848 m 0.375,0.064 c 0.168,1.446 -0.326,2.673 -1.281,3.741 -0.273,0.306 -0.518,0.641 -0.76,0.975 -0.596,0.821 -0.771,1.746 -0.619,2.735 0.207,1.352 1.02,2.296 2.099,3.05 0.081,0.056 0.214,0.038 0.321,0.055 -0.014,-0.107 0.002,-0.232 -0.049,-0.318 -0.225,-0.367 -0.479,-0.714 -0.699,-1.083 -0.643,-1.081 -0.854,-2.247 -0.502,-3.453 0.17,-0.579 0.482,-1.124 0.783,-1.651 0.375,-0.662 0.812,-1.296 0.918,-2.065 0.07,-0.53 0.09,-1.071 0.092,-1.607 0,-0.658 -0.039,-1.316 -0.074,-1.975 -0.004,-0.078 -0.092,-0.152 -0.141,-0.228 -0.029,0.078 -0.082,0.155 -0.084,0.234 -0.008,0.529 -0.004,1.06 -0.004,1.59 m 0.217,11.634 h 0.006 c 0,0.146 -0.014,0.294 0.006,0.437 0.01,0.063 0.09,0.115 0.139,0.172 0.059,-0.054 0.164,-0.104 0.17,-0.165 0.023,-0.289 0.033,-0.582 0.018,-0.872 -0.002,-0.063 -0.125,-0.123 -0.193,-0.185 -0.048,0.067 -0.125,0.131 -0.137,0.205 -0.025,0.131 -0.009,0.271 -0.009,0.408 m 0.768,-0.505 c -0.068,0.105 -0.139,0.17 -0.152,0.243 -0.043,0.248 0.234,0.62 0.481,0.651 0.063,0.007 0.13,-0.032 0.196,-0.051 -0.023,-0.07 -0.035,-0.147 -0.072,-0.209 -0.092,-0.147 -0.197,-0.288 -0.299,-0.432 -0.039,-0.054 -0.08,-0.106 -0.154,-0.202 m -1.067,0.222 c -0.023,-0.028 -0.074,-0.094 -0.125,-0.157 -0.063,0.052 -0.137,0.097 -0.186,0.158 -0.104,0.131 -0.197,0.269 -0.285,0.409 -0.041,0.062 -0.061,0.136 -0.088,0.203 0.072,0.02 0.148,0.065 0.217,0.055 0.229,-0.038 0.469,-0.361 0.467,-0.668"
       id="path3034"
       style="fill:#fc0303;fill-rule:evenodd" /></g><path
     d="m 48.015,29.983 c 0.422,0.788 1.252,1.103 1.879,1.648 0.414,0.36 0.85,0.711 1.189,1.135 1.129,1.406 1.109,3.052 -0.047,4.534 -0.307,0.393 -0.705,0.715 -1.072,1.056 -0.09,0.082 -0.229,0.114 -0.344,0.168 -0.02,-0.024 -0.037,-0.049 -0.057,-0.073 0.063,-0.082 0.115,-0.17 0.186,-0.242 0.98,-1.026 1.414,-2.256 1.303,-3.661 -0.07,-0.871 -0.494,-1.609 -1.063,-2.247 -0.441,-0.498 -0.941,-0.946 -1.432,-1.4 -0.343,-0.317 -0.533,-0.585 -0.542,-0.918"
     id="path3036"
     style="fill:#fc0303;fill-rule:evenodd" /><text
     x="19.103828"
     y="50.996101"
     id="text3142"
     style="font-size:12px;font-style:normal;font-variant:normal;font-weight:normal;font-stretch:normal;font-family:Yanone Kaffeesatz;-inkscape-font-specification:Yanone Kaffeesatz"><tspan
       x="19.103828"
       y="50.996101"
       id="tspan3144"
       style="font-size:7.61420012px;font-style:normal;font-variant:normal;font-weight:normal;font-stretch:normal;fill:#fc0303;font-family:Yanone Kaffeesatz;-inkscape-font-specification:Yanone Kaffeesatz">A</tspan><tspan
       x="22.35483"
       y="50.996101"
       id="tspan3146"
       style="font-size:7.61420012px;font-style:normal;font-variant:normal;font-weight:normal;font-stretch:normal;fill:#fc0303;font-family:Yanone Kaffeesatz;-inkscape-font-specification:Yanone Kaffeesatz">ustrian </tspan><tspan
       x="40.300831"
       y="50.996101"
       id="tspan3148"
       style="font-size:7.61420012px;font-style:normal;font-variant:normal;font-weight:normal;font-stretch:normal;fill:#fc0303;font-family:Yanone Kaffeesatz;-inkscape-font-specification:Yanone Kaffeesatz">P</tspan><tspan
       x="42.91283"
       y="50.996101"
       id="tspan3150"
       style="font-size:7.61420012px;font-style:normal;font-variant:normal;font-weight:normal;font-stretch:normal;fill:#fc0303;font-family:Yanone Kaffeesatz;-inkscape-font-specification:Yanone Kaffeesatz">erl </tspan><tspan
       x="50.175831"
       y="50.996101"
       id="tspan3152"
       style="font-size:7.61420012px;font-style:normal;font-variant:normal;font-weight:normal;font-stretch:normal;fill:#fc0303;font-family:Yanone Kaffeesatz;-inkscape-font-specification:Yanone Kaffeesatz">W</tspan><tspan
       x="54.904827"
       y="50.996101"
       id="tspan3154"
       style="font-size:7.61420012px;font-style:normal;font-variant:normal;font-weight:normal;font-stretch:normal;fill:#fc0303;font-family:Yanone Kaffeesatz;-inkscape-font-specification:Yanone Kaffeesatz">orkshop </tspan></text>
<text
     x="39.3857"
     y="59.263763"
     id="text3156"
     style="font-size:9.17619991px;fill:#fc0303;font-family:YanoneKaffeesatz-Bold"><tspan
       id="tspan3164"
       style="font-style:normal;font-variant:normal;font-weight:bold;font-stretch:normal;font-family:Yanone Kaffeesatz;-inkscape-font-specification:Yanone Kaffeesatz Bold">2014</tspan></text>
</svg>
