<?xml version="1.0" encoding="UTF-8" standalone="no"?>
<!-- Created with Inkscape (http://www.inkscape.org/) -->

<svg
   xmlns:dc="http://purl.org/dc/elements/1.1/"
   xmlns:cc="http://creativecommons.org/ns#"
   xmlns:rdf="http://www.w3.org/1999/02/22-rdf-syntax-ns#"
   xmlns:svg="http://www.w3.org/2000/svg"
   xmlns="http://www.w3.org/2000/svg"
   version="1.1"
   width="242"
   height="200"
   id="svg2"
   style="enable-background:new">
  <defs
     id="defs4">
    <filter
       color-interpolation-filters="sRGB"
       id="filter3438">
      <feBlend
         in2="BackgroundImage"
         mode="screen"
         id="feBlend3440" />
    </filter>
  </defs>
  <metadata
     id="metadata7">
    <rdf:RDF>
      <cc:Work
         rdf:about="">
        <dc:format>image/svg+xml</dc:format>
        <dc:type
           rdf:resource="http://purl.org/dc/dcmitype/StillImage" />
        <dc:title></dc:title>
      </cc:Work>
    </rdf:RDF>
  </metadata>
  <g
     id="layer2"
     style="display:inline;filter:url(#filter3438)">
    <path
       d="m 33.928571,55.714285 c 180.714289,-2.5 180.714289,-2.5 180.714289,-2.5 l 23.57143,25.357143 -0.71429,36.785712 -16.07143,23.57143 -26.78571,5.35714 -20.71429,30 -48.57143,22.5 -33.928568,-8.57142 c 0,0 -26.785715,-20 -28.571429,-20 -1.785714,0 -15.714286,-25.35715 -15.714286,-25.35715 l -28.571428,-5 L 6.7857143,117.5 8.2142857,74.285714 22.5,59.642857 z"
       id="path3430"
       style="fill:none;stroke:#000000;stroke-width:1px;stroke-linecap:butt;stroke-linejoin:miter;stroke-opacity:1" />
    <path
       d="m 112.55346,166.22895 c -3.71909,-0.98121 -7.59963,-2.60766 -13.521196,-5.66713 l -5.306911,-2.7419 -4.057836,-4.35848 c -3.918492,-4.20883 -4.161485,-4.56553 -7.076435,-10.3878 l -3.018604,-6.02932 -16.157421,-0.2372 c -8.886586,-0.13046 -19.670769,-0.2372 -23.964854,-0.2372 l -7.807428,0 -2.58037,-1.29828 c -3.519255,-1.77067 -8.210864,-4.93069 -10.60013,-7.13969 -1.511248,-1.39723 -2.639351,-3.0204 -4.763228,-6.85357 l -2.782989,-5.02273 0.104417,-18.503579 0.104417,-18.503575 2.128697,-3.830738 c 1.813987,-3.264395 2.711597,-4.405746 6.071429,-7.720088 3.779837,-3.728661 4.127174,-3.975519 8.407017,-5.975001 l 4.464286,-2.085652 88.035719,0.0063 88.03571,0.0063 4.10714,1.326249 c 2.25893,0.729437 4.45491,1.523096 4.87996,1.763688 0.42505,0.240591 2.70204,2.166377 5.05996,4.279524 l 4.28715,3.842085 2.56632,4.904765 2.56632,4.904765 0.19512,15.912574 0.19512,15.912583 -0.99693,3.01913 c -1.92351,5.82522 -3.27027,7.95531 -7.92212,12.52994 -4.47251,4.39828 -6.57729,5.79955 -11.54518,7.68624 l -2.67857,1.01726 -23.35797,0.17857 -23.35797,0.17858 -0.70504,1.42857 c -3.29321,6.67278 -8.04702,13.68984 -11.33942,16.73803 -2.12935,1.9714 -7.88065,5.93442 -10.63847,7.33061 -1.94398,0.98417 -10.20909,3.6018 -11.95043,3.78481 -0.82932,0.0871 -3.99892,0.2355 -7.04356,0.32967 -4.62679,0.14309 -5.9462,0.0629 -8.03572,-0.48838 l 0,0 z m -0.89285,-15.37331 0,-1.07143 -2.41072,-0.0142 -2.41071,-0.0142 1.78571,-1.63846 c 3.32631,-3.05202 3.8351,-4.73159 1.99176,-6.57493 -0.87663,-0.87664 -1.33138,-1.04396 -2.83723,-1.04396 -2.0515,0 -3.43442,0.93672 -3.82266,2.58928 -0.21676,0.92269 -0.15792,0.98214 0.97208,0.98214 0.81602,0 1.34625,-0.22969 1.64888,-0.71428 0.61109,-0.97851 2.08309,-0.94124 2.34475,0.0594 0.1607,0.61453 -0.34495,1.31562 -2.45835,3.40855 -2.28795,2.26579 -2.66066,2.80779 -2.66066,3.8692 l 0,1.23431 3.92858,0 3.92857,0 0,-1.07143 z m 7.41395,0.26786 c 1.09382,-1.16767 1.51462,-2.53644 1.51462,-4.92674 0,-2.37117 -0.82914,-4.82917 -1.80518,-5.35154 -0.35633,-0.1907 -1.35363,-0.34672 -2.21623,-0.34672 -2.57045,0 -3.83573,1.89641 -3.83573,5.749 0,2.2744 0.7185,4.50318 1.68704,5.23314 0.32578,0.24553 1.33717,0.44643 2.24753,0.44643 1.25537,0 1.83704,-0.19411 2.40795,-0.80357 z m 10.80033,-0.26786 c 0,-0.98639 -0.0992,-1.07143 -1.25,-1.07143 l -1.25,0 0,-4.64286 0,-4.64285 -1.12933,0 c -0.62114,0 -1.8265,0.40856 -2.67857,0.90791 -1.27374,0.74646 -1.54924,1.09576 -1.54924,1.96428 0,1.25904 -0.0205,1.25508 1.58673,0.30681 l 1.27041,-0.74956 0,3.42813 0,3.42814 -1.42857,0 c -1.34921,0 -1.42857,0.0595 -1.42857,1.07143 l 0,1.07143 3.92857,0 3.92857,0 0,-1.07143 z m 7.85715,0 c 0,-0.83333 0.15872,-1.07143 0.71428,-1.07143 0.55556,0 0.71429,-0.2381 0.71429,-1.07143 0,-0.83333 -0.15873,-1.07143 -0.71429,-1.07143 -0.66667,0 -0.71428,-0.23809 -0.71428,-3.57143 l 0,-3.57142 -1.42325,0 c -1.40295,0 -1.45642,0.0496 -3.75,3.47941 -1.67603,2.50632 -2.32675,3.8048 -2.32675,4.64286 l 0,1.16344 2.5,0 2.5,0 0,1.07143 c 0,0.98639 0.0992,1.07143 1.25,1.07143 1.15079,0 1.25,-0.085 1.25,-1.07143 z m 65.35714,-18.01454 0,-1.9431 0.98214,0.51233 c 1.23488,0.64417 1.66464,0.64386 2.91386,-0.002 1.38922,-0.71839 1.93624,-2.25148 1.7453,-4.89132 -0.13506,-1.86717 -0.31126,-2.32856 -1.17195,-3.0689 -0.82209,-0.70713 -1.25454,-0.82928 -2.29474,-0.64819 -0.70497,0.12273 -2.04515,0.20954 -2.97818,0.1929 l -1.69643,-0.0302 0,5.91088 0,5.91089 1.25,0 1.25,0 0,-1.94311 0,10e-6 z M 44.785607,131.12781 c 0.305591,-0.24617 0.446428,-0.23317 0.446428,0.0412 0,0.22048 0.5625,0.40087 1.25,0.40087 l 1.25,0 0,-4.28571 0,-4.28571 -1.25,0 -1.25,0 0,2.639 c 0,2.08233 -0.145953,2.81686 -0.69191,3.48215 -0.563008,0.68605 -0.812518,0.76956 -1.339286,0.44825 -0.529939,-0.32325 -0.666094,-0.95492 -0.750566,-3.48214 l -0.10319,-3.08726 -1.236095,0 -1.236096,0 0,3.41633 c 0,3.64612 0.300096,4.65019 1.541205,5.15659 0.864164,0.35261 2.67748,0.11388 3.36951,-0.44361 z m 10.174368,0.4245 c 1.478764,-0.41069 2.057775,-1.19075 2.057775,-2.77232 0,-1.29479 -0.570822,-1.7903 -2.959443,-2.56899 -1.066915,-0.34781 -1.861986,-0.82015 -1.861986,-1.10618 0,-0.71038 1.413661,-0.82021 2.072832,-0.16105 0.607932,0.60794 2.228779,0.74973 2.55405,0.22343 0.112614,-0.18221 -0.185414,-0.78489 -0.662286,-1.33929 -0.771492,-0.89691 -1.102446,-1.00799 -3.003321,-1.00799 -2.582768,0 -3.639846,0.7346 -3.639846,2.52944 0,1.4351 1.274017,2.55887 3.26126,2.87664 1.793461,0.28679 2.420775,1.00206 1.371393,1.56367 -0.833489,0.44607 -2.489796,0.20033 -2.489796,-0.36941 0,-0.19268 -0.5625,-0.35034 -1.25,-0.35034 -2.910411,0 -0.495615,2.53014 2.678571,2.80652 0.294643,0.0256 1.1365,-0.1202 1.870797,-0.32413 z m 7.908767,-0.3408 c 0.503665,-0.49181 -0.04675,-1.4273 -0.839785,-1.4273 -0.660136,0 -0.725493,-0.22522 -0.725493,-2.5 0,-2.2619 0.06803,-2.5 0.714286,-2.5 0.52381,0 0.714285,-0.2381 0.714285,-0.89286 0,-0.65476 -0.190475,-0.89285 -0.714285,-0.89285 -0.555558,0 -0.714286,-0.2381 -0.714286,-1.07143 0,-0.91059 -0.136825,-1.07143 -0.911436,-1.07143 -0.691611,0 -1.001518,0.25841 -1.284936,1.07143 -0.205428,0.58928 -0.598853,1.07143 -0.874282,1.07143 -0.296064,0 -0.500775,0.36498 -0.500775,0.89285 0,0.54499 0.203307,0.89286 0.521811,0.89286 0.409886,0 0.543943,0.66824 0.625,3.1155 0.09651,2.91399 0.160939,3.14521 0.996046,3.5748 0.88804,0.45681 2.392008,0.32469 2.99385,-0.263 l 0,0 z m 15.979879,-0.22054 c 0.511196,-0.46054 0.606243,-0.4572 0.792364,0.0278 0.142225,0.37063 0.683025,0.55113 1.651272,0.55113 1.17456,0 1.439778,-0.12454 1.439778,-0.67607 0,-0.37185 -0.241071,-0.76859 -0.535714,-0.88165 -0.405346,-0.15555 -0.535714,-0.81185 -0.535714,-2.69687 0,-2.11865 -0.128929,-2.64118 -0.861936,-3.49335 -0.749446,-0.87129 -1.117421,-1.00206 -2.819646,-1.00206 -2.072922,0 -3.217704,0.63716 -3.570808,1.98742 -0.155303,0.59388 0.01022,0.69115 1.176186,0.69115 0.876697,0 1.429679,-0.18959 1.5625,-0.53571 0.288914,-0.75291 1.204264,-0.66655 1.643997,0.15509 0.552889,1.03309 0.4921,1.09491 -1.0766,1.09491 -2.982275,0 -4.57929,1.90754 -3.48999,4.16861 0.744143,1.54462 3.223611,1.87146 4.624311,0.60957 l 0,1e-5 z m 36.193789,-0.55971 1.06038,-1.18276 -1.12994,-0.11045 c -0.62146,-0.0607 -1.50849,0.1376 -1.97116,0.44075 -0.75774,0.49649 -0.91919,0.49658 -1.62687,0.001 -0.4321,-0.30282 -0.78564,-0.78241 -0.78564,-1.06591 0,-0.40416 0.58853,-0.51546 2.72559,-0.51546 l 2.7256,0 -0.19944,-1.48694 c -0.39734,-2.96238 -2.49764,-4.38041 -5.26149,-3.55234 -0.78195,0.23428 -1.67789,0.81692 -1.99099,1.29477 -0.7328,1.11839 -0.82043,3.94162 -0.17022,5.48387 1.04069,2.46842 4.69034,2.85045 6.62418,0.6934 l 0,0 z m 39.25672,0.0859 c 1.33778,-1.3278 1.64226,-3.87677 0.68483,-5.73291 -1.19091,-2.30875 -5.17859,-2.82009 -7.08959,-0.90909 -2.22271,2.22271 -1.11326,7.20755 1.74013,7.8185 1.65427,0.3542 3.62261,-0.14225 4.66463,-1.1765 l 0,0 z m 24.17605,0.59966 c 1.40164,-0.86568 1.32789,-3.4636 -0.12033,-4.23867 -0.43853,-0.23469 -1.51064,-0.60868 -2.38247,-0.83109 -1.84352,-0.47028 -2.26426,-1.13563 -0.92989,-1.47054 0.62586,-0.15708 1.1427,-0.0439 1.57135,0.34397 0.90532,0.81931 2.54677,0.76717 2.54677,-0.0809 0,-1.26282 -1.33832,-2.01964 -3.57143,-2.01964 -2.60776,0 -3.57143,0.73522 -3.57143,2.72476 0,1.51843 0.62485,2.01859 3.48214,2.78729 1.70252,0.45802 2.02209,1.31208 0.6224,1.66338 -0.55828,0.14012 -1.22595,0.008 -1.77315,-0.35034 -1.05945,-0.69418 -2.68853,-0.7594 -2.68853,-0.10763 0,1.99386 4.46716,3.02921 6.81457,1.5794 z m 18.91542,0.003 c 2.5492,-1.59201 2.20316,-6.81511 -0.5271,-7.95588 -3.72396,-1.55597 -6.97841,0.79467 -6.53588,4.72076 0.19707,1.74839 0.97849,2.82471 2.58299,3.55776 1.17491,0.53679 3.35525,0.37977 4.47999,-0.32264 l 0,0 z M 30.768366,130.14135 c 0.402205,-1.20521 0.487452,-1.25377 2.379088,-1.35528 l 1.961935,-0.10527 0.432802,1.44456 c 0.409338,1.36625 0.508121,1.44456 1.82209,1.44456 l 1.389287,0 -1.080086,-2.94642 c -0.594047,-1.62054 -1.51824,-4.15179 -2.053761,-5.625 l -0.973676,-2.67858 -1.447477,-0.10761 c -1.124697,-0.0836 -1.50486,0.0358 -1.704805,0.53572 -0.960985,2.40248 -3.761728,10.23272 -3.761728,10.51693 0,0.19145 0.589315,0.2982 1.309589,0.23724 1.140913,-0.0966 1.363319,-0.27185 1.726742,-1.36085 l 0,0 z m 35.611798,-1.48171 c 0.17825,-3.07916 0.769532,-4.10715 2.155443,-3.7474 0.504671,0.13101 0.625,-0.072 0.625,-1.05432 0,-1.01046 -0.131375,-1.21657 -0.77545,-1.21657 -0.426497,0 -1.069354,0.26598 -1.428572,0.59107 -0.390771,0.35364 -0.653121,0.42537 -0.653121,0.17857 0,-0.23333 -0.542936,-0.41249 -1.25,-0.41249 l -1.25,0 0,4.28571 0,4.28571 1.204111,0 1.204114,0 0.168475,-2.91028 z m 6.351871,-1.37543 0,-4.28571 -1.25,0 -1.25,0 0,4.28571 0,4.28571 1.25,0 1.25,0 0,-4.28571 z m 13.214286,1.68661 c 0,-2.80117 0.584986,-4.18661 1.767757,-4.18661 0.902318,0 1.089386,0.67962 1.089386,3.95778 l 0,2.82793 1.25,0 1.25,0 0,-3.72407 c 0,-3.5978 -0.03189,-3.74918 -0.941022,-4.46429 -1.118432,-0.87976 -2.527089,-0.95141 -3.622367,-0.18424 -0.444908,0.31162 -0.793754,0.3901 -0.793754,0.17857 0,-0.20757 -0.5625,-0.37739 -1.25,-0.37739 l -1.25,0 0,4.28571 0,4.28571 1.25,0 1.25,0 0,-2.5991 z m 14.285719,0.63482 0,-1.96429 2.30151,0 c 2.96886,0 4.10887,-0.84593 4.37985,-3.25 0.33602,-2.98121 -1.64683,-4.22337 -6.77065,-4.24148 l -2.410715,-0.009 0,5.71429 0,5.71428 1.25,0 1.250005,0 0,-1.96428 z m 19.64285,-0.8375 c 0,-2.3305 0.11792,-2.9085 0.70098,-3.43618 0.38555,-0.34891 0.94805,-0.53957 1.25,-0.4237 0.43102,0.16539 0.54902,-0.0645 0.54902,-1.06975 0,-1.21903 -0.0471,-1.2685 -0.98214,-1.0317 -0.54018,0.13679 -1.66518,0.22945 -2.5,0.2059 l -1.51786,-0.0428 0,4.30001 0,4.30002 1.25,0 1.25,0 0,-2.80178 0,0 z m 6.07143,-3.09107 0,-5.89286 -1.25,0 -1.25,0 0,5.89286 0,5.89285 1.25,0 1.25,0 0,-5.89285 z m 12.1634,1.9438 0.85671,-3.94906 0.86535,3.94906 0.86536,3.94905 1.52546,0 c 1.4071,0 1.55416,-0.0901 1.89525,-1.16071 0.41458,-1.30136 2.54276,-9.7462 2.54276,-10.08995 0,-0.12156 -0.59984,-0.17115 -1.33296,-0.11018 l -1.33296,0.11084 -0.80495,3.71529 c -0.44272,2.04341 -0.85324,3.76358 -0.91225,3.8226 -0.059,0.059 -0.48622,-1.66115 -0.94934,-3.82259 l -0.84203,-3.9299 -1.46312,0.1073 -1.46312,0.1073 -0.91877,3.92858 -0.91878,3.92857 -0.80313,-3.57143 c -0.44172,-1.96429 -0.86842,-3.77232 -0.94822,-4.01786 -0.17096,-0.52601 -2.66752,-0.61125 -2.66752,-0.0911 0,0.32265 2.33839,9.56941 2.68738,10.62679 0.0879,0.26636 0.77551,0.44642 1.70476,0.44642 l 1.55741,0 0.85671,-3.94905 z m 21.40803,1.34995 c 0,-2.91518 0.65664,-4.37838 1.82749,-4.0722 0.5646,0.14764 0.67251,-0.026 0.67251,-1.08234 0,-1.19165 -0.052,-1.24572 -0.98214,-1.02238 -0.54018,0.1297 -1.66518,0.22139 -2.5,0.20375 l -1.51786,-0.0321 0,4.30217 0,4.30217 1.25,0 1.25,0 0,-2.5991 0,0 z m 6.14115,0.93059 c 0.0599,-0.91768 0.26956,-1.72107 0.46599,-1.78531 0.19643,-0.0642 0.80838,0.68658 1.35989,1.66851 0.93846,1.67085 1.09302,1.78531 2.41072,1.78531 0.77438,0 1.40796,-0.0787 1.40796,-0.17491 0,-0.0962 -0.70262,-1.27109 -1.56139,-2.61086 l -1.5614,-2.43593 1.47211,-1.58558 1.47211,-1.58557 -1.39728,-0.11431 c -1.26107,-0.10315 -1.52942,0.0361 -2.75264,1.42858 l -1.35534,1.54287 -0.0152,-3.125 -0.0152,-3.125 -1.25,0 -1.25,0 0,5.89286 0,5.89285 1.23043,0 c 1.21136,0 1.23212,-0.0258 1.33929,-1.66851 z m 17.78742,-0.93059 c 0,-2.95108 0.62581,-4.30059 1.90949,-4.11765 0.71525,0.10194 0.77627,0.34087 0.87177,3.41318 l 0.10269,3.30357 1.46292,0 1.46291,0 -0.17504,-3.63504 c -0.16386,-3.40304 -0.23656,-3.68796 -1.13909,-4.46428 -1.11642,-0.9603 -2.56804,-1.06746 -3.7019,-0.27328 -0.79171,0.55454 -0.79375,0.55087 -0.79375,-1.42857 l 0,-1.98454 -1.25,0 -1.25,0 0,5.89286 0,5.89285 1.25,0 1.25,0 0,-2.5991 0,0 z M 72.732035,120.67707 c 0,-0.78232 -0.15476,-0.89286 -1.25,-0.89286 -1.095239,0 -1.25,0.11054 -1.25,0.89286 0,0.78231 0.154761,0.89285 1.25,0.89285 1.09524,0 1.25,-0.11054 1.25,-0.89285 z m -29.285714,-5.48271 c 0,-0.95149 -0.153436,-1.05995 -2.334709,-1.6504 -2.072449,-0.56098 -2.391356,-0.76755 -2.839005,-1.83892 -0.477354,-1.14248 -0.416926,-1.46348 1.131031,-6.00827 l 1.635328,-4.80131 1.828677,-0.19011 c 1.005773,-0.10456 3.976664,-0.23406 6.601978,-0.28777 l 4.773304,-0.0977 1.230382,3.03572 c 1.224389,3.02092 2.351639,6.82173 2.780453,9.375 l 0.224929,1.33928 -2.159043,0 -2.159039,0 0,1.07143 0,1.07143 16.25,0 16.25,0 0,-1.04003 c 0,-0.92716 -0.145361,-1.06237 -1.339286,-1.24575 -0.736607,-0.11314 -1.639961,-0.16744 -2.00745,-0.12068 -0.738132,0.0939 -0.122657,1.62899 -10.419157,-25.986396 -3.076047,-8.25 -6.232482,-16.344056 -7.014307,-17.986792 l -1.4215,-2.986792 -7.202722,0.258657 c -3.961496,0.142261 -7.221196,0.280961 -7.243775,0.308221 -0.07456,0.09002 -11.585959,31.002903 -13.783285,37.013852 -1.184787,3.24107 -2.416139,6.19336 -2.736338,6.56064 -0.320199,0.36728 -1.466109,1.22596 -2.546466,1.90818 -2.082628,1.31511 -2.857143,2.08754 -2.857143,2.84944 0,0.37068 1.589614,0.46745 7.678571,0.46745 l 7.678572,0 0,-1.01842 z m 77.219339,-0.055 c 0.0866,-0.5904 0.0781,-1.1529 -0.019,-1.25 -0.0971,-0.0971 -1.27474,-0.17654 -2.61701,-0.17654 l -2.44047,0 0,-3.25249 c 0,-2.95152 0.0578,-3.23015 0.625,-3.01102 1.56665,0.60529 4.47897,0.90637 8.76736,0.90637 l 4.652,0 2.88853,-1.69244 c 5.59713,-3.27946 6.36175,-3.91803 7.95468,-6.64324 3.13368,-5.361129 3.41774,-6.289482 3.90289,-12.755448 0.22463,-2.993867 0.20383,-3.105373 -1.03269,-5.535714 -0.69406,-1.364167 -1.37942,-2.882088 -1.52301,-3.373159 -0.14359,-0.491072 -0.61252,-1.31347 -1.04208,-1.827552 -0.42955,-0.514082 -0.97476,-1.402461 -1.21157,-1.974175 -0.32407,-0.782368 -1.6964,-1.809997 -5.54819,-4.154592 l -5.11762,-3.11511 -19.64872,0 c -10.8068,0 -20.14835,0.09992 -20.759,0.222055 -0.710057,0.142011 -1.01581,0.367303 -0.848214,0.625 0.144132,0.22162 0.262061,0.724374 0.262061,1.117231 0,0.633309 0.273296,0.726258 2.410714,0.819889 l 2.410714,0.105604 0,21.549171 0,21.54917 -0.803571,0.21535 c -0.441964,0.11844 -1.473464,0.21754 -2.292218,0.22023 -2.128579,0.007 -2.618496,0.28231 -2.618496,1.47165 l 0,1.03322 16.74518,0 16.74518,0 0.15755,-1.07346 0,0 z m 46.92855,0.80014 c 0.21884,-0.14432 1.87528,-5.40525 3.68098,-11.69096 1.80571,-6.285719 3.37398,-11.737585 3.48505,-12.115264 0.11447,-0.389258 1.3217,3.787406 2.78718,9.642854 1.42189,5.68125 2.86112,11.25723 3.1983,12.39107 l 0.61305,2.06152 6.45407,-0.0972 6.45406,-0.0972 2.09634,-7.32143 c 1.15298,-4.02678 3.88132,-13.669641 6.06296,-21.42857 3.44071,-12.236784 4.11906,-14.296546 5.11642,-15.535714 1.51242,-1.879116 1.97513,-2.793949 1.97513,-3.905093 l 0,-0.916336 -5.67265,0 -5.67265,0 -0.17748,0.928402 c -0.32627,1.706767 0.033,2.158512 2.08086,2.616813 1.06136,0.237521 2.01573,0.570996 2.12083,0.741056 0.62518,1.011559 -4.84544,21.205083 -5.54754,20.477453 -0.36395,-0.377192 -5.7028,-20.367147 -5.7028,-21.352699 0,-0.108206 0.80357,-0.196739 1.78572,-0.196739 1.93344,0 1.97817,-0.0556 1.39363,-1.73242 l -0.39208,-1.124723 -3.65704,0 c -2.01137,0 -8.02244,-0.106179 -13.35792,-0.235954 l -9.70088,-0.235954 0,1.612861 c 0,1.504717 0.0759,1.63462 1.1315,1.937372 l 1.1315,0.32451 1.7936,7.037338 1.79359,7.037337 -0.61675,2.60053 c -0.7474,3.151429 -1.9249,5.88443 -2.33939,5.429789 -0.1651,-0.181092 -1.54966,-5.070329 -3.07681,-10.864972 -1.52714,-5.794643 -2.85117,-10.736607 -2.94228,-10.982143 -0.0911,-0.245535 0.10036,-0.446428 0.4255,-0.446428 0.69783,0 1.61053,-1.954366 1.36004,-2.912249 -0.16713,-0.639115 -0.72406,-0.664041 -12.83309,-0.574359 l -12.65837,0.09375 -0.60238,1.014022 -0.60237,1.014024 1.54214,1.338062 1.54214,1.338062 4.58429,15.862201 c 5.0709,17.545921 8.09745,27.689481 8.41515,28.203531 0.2441,0.39497 11.93599,0.45462 12.52845,0.0639 l 0,0 z"
       id="path3432"
       style="fill:#ffffff;fill-opacity:1" />
    <path
       d="m 107.79437,191.63289 -16.187656,-4.17011 -6.30115,-4.64286 C 76.854153,176.5927 65.721585,168.79815 64.080796,167.95926 63.3494,167.58531 62.133614,166.4367 61.37905,165.40679 59.67296,163.07812 54.514739,154.5229 50.612796,147.55032 c -2.122243,-3.79236 -3.164646,-5.3173 -3.718418,-5.43972 -0.423218,-0.0936 -6.874942,-1.22948 -14.337166,-2.52426 -7.462224,-1.29479 -13.583466,-2.38263 -13.602761,-2.41743 -0.01929,-0.0348 -2.636413,-4.56327 -5.815819,-10.06327 l -5.7807377,-10 0.1912782,-3.21429 c 0.1052031,-1.76785 0.4504382,-11.3297 0.7671893,-21.248536 l 0.575911,-18.034258 6.9786402,-7.144316 6.978641,-7.144316 5.744812,-1.99309 5.744812,-1.993091 85.892862,-1.147338 c 47.24107,-0.631036 87.76369,-1.140395 90.05027,-1.13191 l 4.15741,0.01543 11.50832,12.367514 11.50832,12.367515 -0.26549,17.528011 c -0.14601,9.640405 -0.38602,17.948305 -0.53335,18.462005 -0.23442,0.81738 -14.39725,21.94212 -15.49683,23.11449 -0.23042,0.24567 -6.33334,1.63148 -13.56205,3.07958 -7.52097,1.50664 -13.34283,2.84329 -13.61,3.12475 -0.25679,0.27052 -4.83958,6.84006 -10.18397,14.59899 -5.3444,7.75893 -9.9819,14.37457 -10.30557,14.70142 -0.87731,0.88595 -47.6942,22.44572 -48.67424,22.41512 -0.46355,-0.0145 -8.12727,-1.90287 -17.03049,-4.19643 l 0,0 z"
       id="path3442"
       style="fill:#ffffff;fill-opacity:1" />
  </g>
  <g
     transform="translate(-161.85715,-220.93361)"
     id="layer1"
     style="display:inline">
    <g
       transform="translate(0.35714245,1.0714286)"
       id="g3301">
      <path
         d="m 269.21735,419.52485 c -9.38072,-1.79132 -13.44105,-3.15789 -21.79781,-7.33641 -16.87358,-8.43709 -29.50203,-21.78981 -37.52982,-39.68224 l -2.83166,-6.31124 -8.4587,-0.44397 -8.4587,-0.44397 -5.87899,-2.87632 -5.879,-2.87633 -4.82459,-4.82459 -4.82459,-4.82459 -2.43052,-5.30895 -2.43052,-5.30896 -1.00765,-5.31332 -1.00765,-5.31333 0,-10.72702 0,-10.72702 1.00765,-5.31333 1.00765,-5.31333 2.43052,-5.30895 2.43052,-5.30895 4.83364,-4.83364 4.83363,-4.83363 5.4782,-2.58985 5.47819,-2.58984 3.5,-0.54383 c 1.925,-0.29911 5.1875,-0.81033 7.25,-1.13604 l 3.75,-0.59222 0,-3.83256 0,-3.83257 6.5,-5.70668 6.5,-5.70668 0,-6.91544 0,-6.91544 23.5,0 23.5,0 0,-2.5 0,-2.5 12.94098,0 12.94099,0 0.78258,1.25 c 0.43042,0.6875 0.79448,1.925 0.80902,2.75 l 0.0264,1.5 2.75,0.31642 2.75,0.31642 0,-2.56642 3e-5,-2.56642 3.91483,0 3.91483,0 3.67034,-5 c 2.01869,-2.75 3.8148,-5 3.99136,-5 0.17657,0 1.93749,2.25 3.91317,5 l 3.59214,5 3.50167,0 3.50166,0 0,1.5 0,1.5 11,0 11,0 0,1.95879 0,1.95879 4.14397,5.54121 4.14396,5.54121 2.35604,0 2.35603,0 0,3.27749 0,3.2775 1.5567,2.2225 1.55671,2.22251 -1.55671,2.22251 c -0.85618,1.22237 -1.5567,3.00198 -1.5567,3.95468 l 0,1.73218 3.25,0.49842 c 1.7875,0.27412 4.99529,0.77575 7.12843,1.11472 2.13313,0.33896 6.19412,1.64042 9.02443,2.89211 l 5.146,2.27581 5.03191,4.90478 5.03191,4.90479 2.67967,5.5 2.67968,5.5 1.01398,5.38649 1.01399,5.38649 -0.0208,11.11351 -0.0208,11.11351 -1.28527,6.13149 -1.28528,6.13149 -3.44388,5.73165 -3.44389,5.73165 -3.96958,3.42074 -3.96959,3.42075 -5.39118,2.63766 -5.39118,2.63766 -8.94485,0.57845 -8.94484,0.57846 -2.35399,5.80224 c -3.21588,7.92668 -8.11678,15.81544 -13.77188,22.16799 l -4.73709,5.32131 -6.90697,5.12035 -6.90697,5.12035 -7.5243,3.47644 -7.5243,3.47645 -6.33164,1.49844 -6.33164,1.49844 -9.5,0.48631 -9.5,0.48631 -7.1398,-1.36339 z m 35.1398,-11.67568 9,-2.97994 8.37534,-5.64643 8.37535,-5.64644 5.31507,-6.44371 5.31508,-6.44371 3.48246,-6.62767 3.48246,-6.62766 1.19584,-4.75 1.19583,-4.75 9.34377,0 9.34377,0 5.48915,-2.05375 5.48914,-2.05375 4.91257,-4.41682 4.91256,-4.41682 2.38581,-5.27943 2.3858,-5.27943 0,-16.5 0,-16.5 -2.13733,-4.62241 -2.13733,-4.6224 -3.70212,-4.09781 -3.70213,-4.09782 -5.60455,-2.74205 -5.60455,-2.74204 -9.30599,-0.40702 -9.306,-0.40701 0,-9.22573 0,-9.22574 -1.92042,-1.73795 -1.92041,-1.73795 -1.11477,2.08297 -1.11477,2.08296 -3.46481,0 -3.46482,0 0,-8 0,-8 -1,0 -1,0 0,1.2 0,1.2 -1.17621,-1.17621 -1.1762,-1.1762 -1.3238,1.09865 -1.32379,1.09865 0,-1.12245 0,-1.12244 -1.125,0 -1.125,0 0.6,3 0.6,3 -6.975,0 -6.975,0 0,-3.54797 0,-3.54796 -2.7237,-2.34283 -2.7237,-2.34283 -2.72097,2.14079 -2.72097,2.1408 -0.0553,1.75 -0.0553,1.75 -11.76287,0 -11.76287,0 -0.98713,-2.25 -0.98713,-2.25 -3.75,-0.31037 -3.75,-0.31036 0,2.49394 0,2.49394 -2.75,0.31643 -2.75,0.31642 -0.3075,4.25 -0.3075,4.25 -1.82005,0 -1.82006,0 -1.26583,-1.52523 -1.26583,-1.52523 -1.68535,1.52523 c -0.92695,0.83888 -2.21243,1.52523 -2.85662,1.52523 l -1.17126,0 -0.16004,-5.25 -0.16003,-5.25 -0.40333,3.25 -0.40332,3.25 -5.78165,0 -5.78166,0 -1.80997,2 -1.80998,2 -2.34501,0 -2.34501,0 -0.0789,-5.25 -0.0789,-5.25 -0.50438,1.25 -0.50439,1.25 -1.33333,0 -1.33333,0 -0.50439,-1.25 -0.50439,-1.25 -0.0789,1.75 -0.079,1.75 -1,0 -1,0 0,-1.5 0,-1.5 -0.92289,0 -0.92288,0 0.56722,7.5 0.56723,7.5 -3.71106,0 -3.71106,0 -3.43328,2.61869 -3.43328,2.61869 0,6.24761 0,6.24762 -9.75,0.47866 -9.75,0.47867 -5,2.55542 -5,2.55542 -3.73348,3.74975 -3.73347,3.74976 -2.26653,4.59985 -2.26652,4.59986 0,17.5 0,17.5 2.21954,4.5 2.21954,4.5 3.72282,3.83063 3.72283,3.83063 5.05763,2.61809 5.05764,2.61808 10.65888,0.40879 10.65887,0.40879 0.59722,3.18341 c 0.32846,1.75088 2.10697,6.315 3.95224,10.1425 l 3.35503,6.95908 4.5582,6 4.55821,6 4.33067,3.55821 c 2.38187,1.95702 6.49856,5.03705 9.1482,6.8445 l 4.81752,3.28628 8.12607,2.96565 8.12607,2.96565 5.55641,0.88017 5.55641,0.88018 9,-0.49257 9,-0.49256 9,-2.97995 z"
         id="path3305"
         style="fill:#9a0909" />
      <path
         d="m 263.35715,419.03519 c -13.63484,-3.68988 -25.53836,-10.24885 -35.26522,-19.43152 l -5.47645,-5.17006 -4.40252,-6.15972 -4.40253,-6.15973 -3.50692,-7.59027 -3.50692,-7.59028 -6.71972,-0.0237 -6.71972,-0.0237 -5.83503,-2.39919 c -3.20927,-1.31956 -7.66311,-3.66605 -9.89742,-5.21443 l -4.06239,-2.81524 -3.94672,-5.22739 -3.94672,-5.2274 -1.90586,-6.12353 -1.90586,-6.12354 0,-15.80557 0,-15.80557 1.98571,-6.35534 1.98571,-6.35533 4.41325,-5.5 4.41325,-5.5 5.6715,-3.41476 5.67149,-3.41477 5.14748,-1.33523 c 2.8311,-0.73438 6.6244,-1.33524 8.42954,-1.33524 l 3.28207,0 0,-3.91544 0,-3.91544 6.45791,-5.66973 6.45791,-5.66973 0.29209,-7.16483 0.29209,-7.16483 23.75,-0.2681 23.75,-0.2681 0,-2.01012 0,-2.01012 13.75,0.27822 13.75,0.27822 0.31955,2.25 0.31955,2.25 2.43045,0 2.43045,0 0,-2 0,-2 3.46846,0 3.46845,0 4.06309,-5.5 c 2.2347,-3.025 4.21983,-5.5 4.4114,-5.5 0.19157,0 2.23961,2.50501 4.5512,5.56669 l 4.20289,5.56668 2.95771,-0.31024 2.95771,-0.31025 0.74548,1.20622 0.74548,1.20621 10.46407,0.28734 10.46406,0.28735 0.33906,2.5 0.33906,2.5 3.94334,5.25 3.94333,5.25 2.4676,0 2.46761,0 0,3.67126 0,3.67126 1.65499,1.82874 1.65499,1.82874 -1.65499,1.82874 -1.65499,1.82874 0,2.0288 0,2.02881 6.25,0.64203 6.25,0.64204 6.42526,3.14936 6.42525,3.14936 4.26885,4.26885 4.26885,4.26885 3.30589,6.33221 3.3059,6.33221 0,20.5 0,20.5 -3.3059,6.33221 -3.30589,6.33221 -4.36189,4.3619 -4.3619,4.36189 -6.33221,3.22528 -6.33221,3.22527 -8.20562,0.45369 -8.20562,0.45369 -4.19348,8.46525 -4.19348,8.46525 -5.2235,6.66168 -5.2235,6.66168 -4.89595,4.11437 c -2.69278,2.2629 -7.56958,5.82466 -10.83734,7.91502 l -5.94139,3.80066 -9.54006,3.50219 -9.54006,3.5022 -14.5,0.33074 -14.5,0.33074 -7,-1.89434 z m 16.5,-15.10158 0,-1 -1.94098,0 -1.94099,0 -0.5463,-0.88394 -0.54631,-0.88395 2.98729,-1.23737 2.98729,-1.23738 0,-1.24784 0,-1.24784 -3.75,-0.61983 c -2.0625,-0.34091 -4.5375,-0.62479 -5.5,-0.63084 l -1.75,-0.011 0,1 0,1 2,0 2,0 0,0.87868 0,0.87868 -3,1.24264 -3,1.24264 0,1.31832 0,1.31831 3.75,0.39226 c 2.0625,0.21575 4.7625,0.46791 6,0.56037 l 2.25,0.1681 0,-1 z m 16.75,-1.24859 1.25,-0.9963 0,-2.25511 0,-2.25511 -1.50846,-1.25191 -1.50847,-1.25192 -3.49153,0.5666 -3.49154,0.5666 0,-1.93713 0,-1.93713 -0.75,0.0153 c -0.4125,0.008 -1.26489,0.34592 -1.89419,0.75 l -1.1442,0.73469 1.00137,5.7952 1.00138,5.7952 4.64282,-0.67134 4.64282,-0.67135 1.25,-0.9963 z m -7.38581,-2.24472 -0.62976,-1.64112 1.06557,-1.06557 1.06557,-1.06557 1.64112,0.62976 1.64112,0.62976 -0.33539,1.74154 -0.33539,1.74154 -1.74154,0.33539 -1.74154,0.33539 -0.62976,-1.64112 z m -22.42556,-9.1497 0.0614,-1.14301 -1.64313,-0.63053 c -0.90372,-0.34679 -1.72299,-0.50743 -1.82061,-0.35699 -0.0976,0.15045 -1.13217,2.83306 -2.29902,5.96136 l -2.12154,5.68781 1.69215,0.37307 1.69215,0.37306 2.18863,-4.56088 c 1.20374,-2.50848 2.21624,-5.07524 2.25,-5.70389 z m 43.06137,6.64301 c 1.1,-1.1 2.23625,-1.96625 2.525,-1.925 0.28875,0.0413 1.07625,-0.11324 1.75,-0.34332 l 1.225,-0.41831 -2,-4.13196 -2,-4.13197 -1.44314,0.90367 -1.44315,0.90366 1.24549,2.73356 1.24549,2.73355 -1.61346,1.58806 -1.61347,1.58806 -1.18888,-1.66338 c -0.65388,-0.91486 -1.63888,-2.37539 -2.18888,-3.24562 l -1,-1.58225 -1.46339,0.93653 -1.4634,0.93652 1.69722,3.5591 1.69721,3.5591 2.01618,0 2.01618,0 2,-2 z m -52.03596,-6.66111 0.036,-1.1611 -3.07673,-2.5889 -3.07672,-2.58889 -2.42328,0 c -3.26601,0 -3.0575,0.47115 1.07673,2.43298 l 3.5,1.66085 0,0.97877 0,0.97876 -2.95034,-1.52568 c -3.3984,-1.75738 -5.67103,-1.94733 -6.53689,-0.54635 l -0.60526,0.97934 1.08143,2.02066 1.08143,2.02067 1.3118,0 c 0.7215,0 2.36533,0.91371 3.65296,2.03047 l 2.34115,2.03047 2.2759,-2.78047 c 1.25174,-1.52926 2.29208,-3.30297 2.31186,-3.94158 z m -9.29737,0.99444 c -0.92219,-0.92219 -0.83619,-2.33333 0.1422,-2.33333 0.44488,0 1.68238,0.66069 2.75,1.4682 l 1.94113,1.46819 -2.08333,0.0318 c -1.14584,0.0175 -2.38334,-0.2682 -2.75,-0.63487 z m 73.81587,-2.30508 0.60058,-0.97176 -1.62776,-2.48427 -1.62775,-2.48427 0.64521,-1.04397 0.64521,-1.04398 -0.57777,-0.93486 -0.57778,-0.93487 -2.64902,2.45503 -2.64901,2.45502 2.85486,2.97984 c 3.03911,3.17214 4.00283,3.56205 4.96323,2.00809 z m -27.31443,-5.08488 6.10503,-2.05664 5.20134,-3.32725 5.20133,-3.32726 3.57794,-4.3664 c 1.96787,-2.40153 4.7645,-6.72878 6.21472,-9.61612 l 2.63678,-5.2497 22.76924,0 22.76923,0 4.92814,-1.6759 4.92814,-1.67589 5.58988,-5.58398 5.58987,-5.58398 1.7294,-5.20672 1.72939,-5.20672 -0.31927,-15.78341 -0.31927,-15.7834 -2.48771,-4.87106 -2.48772,-4.87105 -4.69445,-4.22072 -4.69446,-4.22072 -5.34023,-1.67971 -5.34023,-1.67971 -87.4776,0.27149 -87.4776,0.27148 -4.5,2.13594 -4.5,2.13593 -3.82504,3.801 -3.82505,3.801 -2.17495,4.06307 -2.17496,4.06306 0,18.5 0,18.5 2.94896,5.32355 2.94896,5.32355 3.55104,2.78943 c 1.95307,1.53419 5.12604,3.6386 7.05104,4.67646 l 3.5,1.88701 24.26818,0.31454 24.26818,0.31453 3.03858,6.01938 3.03857,6.01938 3.94115,4.27564 3.94115,4.27565 6.19921,3.30414 c 3.40956,1.81728 8.02301,3.87537 10.25209,4.57355 l 4.05289,1.2694 6.78155,0.0669 6.78154,0.0669 6.10502,-2.05663 z M 189.86347,335.18361 c 0.004,-0.4125 1.24098,-1.46175 2.75,-2.33167 l 2.74368,-1.58167 4.94416,-13.41833 c 2.71929,-7.38008 6.3944,-17.24333 8.1669,-21.91833 l 3.22274,-8.5 6.92691,-0.29066 6.92692,-0.29065 0.98352,1.29065 c 0.54094,0.70986 3.37444,7.81566 6.29667,15.79066 2.92223,7.975 6.63264,17.9875 8.24535,22.25 l 2.9322,7.75 1.92732,0 1.92731,0 0,1 0,1 -16,0 -16,0 0,-1 0,-1 2.13084,0 2.13084,0 -0.55072,-3.25 c -0.3029,-1.7875 -1.27627,-4.95773 -2.16305,-7.04496 l -1.61232,-3.79495 -6.6557,0.29495 -6.6557,0.29496 -1.70539,4.94628 -1.70539,4.94628 0.50359,1.31235 0.5036,1.31235 2.3897,0.59978 2.3897,0.59978 0,0.89159 0,0.89159 -7.5,0 -7.5,0 0.006,-0.75 z m 24.74699,-18.5 c -0.25336,-0.6875 -1.4632,-4.2875 -2.68852,-8 -1.22532,-3.7125 -2.37947,-6.75 -2.56479,-6.75 -0.18532,0 -1.33947,3.0375 -2.56479,6.75 -1.22532,3.7125 -2.43516,7.3125 -2.68852,8 l -0.46067,1.25 5.71398,0 5.71398,0 -0.46067,-1.25 z m 34.24669,18.31642 0,-0.93358 2.75,-0.31642 2.75,-0.31642 0.26931,-21.68171 0.26931,-21.68172 -2.76931,-0.31828 -2.76931,-0.31829 0.5,-1 0.5,-1 20.08108,0 20.08107,0 4.91893,3.00487 4.91892,3.00486 2.82612,5.49514 2.82612,5.49513 -0.53661,4.8142 -0.53661,4.81419 -2.28951,4.14483 -2.28951,4.14484 -4.70297,2.90581 -4.70296,2.90581 -4.79704,0.0531 c -2.63837,0.0292 -5.80953,-0.2778 -7.04703,-0.68223 l -2.25,-0.73533 0,3.56739 0,3.56739 2.5,0 2.5,0 0,1 0,1 -16.5,0 -16.5,0 0,-0.93358 z m 43.25,-16.63212 1.75,-3.5165 0,-3.76273 0,-3.76274 -3.5,-3.39233 c -1.925,-1.86578 -3.5,-3.80916 -3.5,-4.31861 l 0,-0.92628 1.5,1.24489 c 0.825,0.68469 1.5,1.03453 1.5,0.77743 0,-0.2571 -1.0125,-1.3199 -2.25,-2.36179 -1.2375,-1.04188 -1.96038,-1.53451 -1.60641,-1.09473 l 0.64359,0.79961 -1.38172,5.18974 c -1.45907,5.48024 -1.7568,10.77863 -0.80501,14.32566 l 0.57315,2.13591 2.1632,1.04641 c 3.0463,1.47358 2.97668,1.50736 4.9132,-2.38394 z m -14.95097,1.0626 -2.14597,-1.5031 -1.10655,-3.35286 -1.10654,-3.35286 0.96303,-2.53295 c 0.52966,-1.39312 2.45567,-4.25429 4.28001,-6.35814 l 3.31699,-3.8252 -4.17206,3.31884 -4.17206,3.31883 -1.16873,2.82155 -1.16872,2.82155 0.70313,2.32372 c 0.80658,2.66562 5.3478,7.82372 6.88804,7.82372 l 1.03541,0 -2.14598,-1.5031 z m 18.93141,-1.28629 1.73044,-1.48519 0.64521,-3.43923 0.6452,-3.43924 -1.04798,-2.30008 -1.04799,-2.30008 -3.32766,-2.33807 -3.32766,-2.33806 3.25,3.74946 3.25,3.74947 0,3.38848 0,3.38848 -2.75,3.28221 -2.75,3.28222 1.5,-0.85759 c 0.825,-0.47168 2.2787,-1.52593 3.23044,-2.34278 z m -14.67374,-0.43312 -1.5567,-2.2225 0.004,-4.0275 0.004,-4.02749 1.98156,-3.25 c 2.71674,-4.45577 1.66534,-4.10689 -1.45299,0.48213 l -2.53657,3.73214 0,3.13301 0,3.133 2.07258,2.63486 c 2.51595,3.19851 3.65785,3.51578 1.48412,0.41235 z m 34.94534,17.02056 C 315.68186,332.86917 311.4433,318.4596 307.3,303.93361 l -3.56543,-12.5 -1.53885,-1.18347 -1.53885,-1.18346 0.65916,-1.06654 0.65915,-1.06653 12.44099,0 12.44098,0 0,1.41667 c 0,0.77916 -0.38631,1.56666 -0.85847,1.75 l -0.85847,0.33333 2.98449,11.25 2.98449,11.25 0.66739,0 c 0.36706,0 1.15682,-1.83367 1.75502,-4.07482 l 1.08763,-4.07482 -1.84231,-7.16227 -1.84231,-7.16227 -1.03873,-0.34624 -1.03873,-0.34625 0,-1.44569 0,-1.44569 13.16812,0.27902 13.16811,0.27903 0.41522,1.25 0.41522,1.25 -1.96123,0 -1.96123,0 2.82902,11.11779 c 1.55596,6.11478 3.00538,11.29415 3.22094,11.50971 0.4668,0.4668 4.27129,-12.51255 5.25825,-17.939 l 0.69324,-3.8115 -2.12283,-0.55513 -2.12283,-0.55513 0,-1.38337 0,-1.38337 5.5,0 5.5,0 0,1.17126 c 0,0.64419 -0.69291,1.93691 -1.53979,2.87271 l -1.53979,1.70145 -2.29176,8.37729 c -1.26047,4.60751 -4.01252,14.33979 -6.11567,21.62729 l -3.82392,13.25 -6.27358,0 -6.27357,0 -1.51399,-5.25 c -0.8327,-2.8875 -2.29304,-8.625 -3.24522,-12.75 l -1.73122,-7.5 -0.99504,3.5 c -0.54727,1.925 -2.16187,7.55 -3.588,12.5 l -2.59295,9 -6.25069,0.29805 -6.2507,0.29806 -0.47207,-1.29806 z m -74.13409,46.70195 c -0.0726,-1.65 -0.46261,-4.0125 -0.86663,-5.25 l -0.73458,-2.25 1.14138,0 1.14138,0 0.91357,2.40286 c 0.50246,1.32157 1.39132,2.69813 1.97525,3.05902 l 1.06168,0.65615 0,-2.37192 0,-2.37193 -2.80472,-2.68709 c -3.22079,-3.08571 -4.43541,-3.30761 -6.23514,-1.13906 l -1.28476,1.54803 1.67888,3.52065 1.67888,3.52065 -0.6056,0.97988 -0.6056,0.97988 -1.41097,-1.17101 -1.41097,-1.171 0,-1.75511 0,-1.75511 -1.48817,-1.23507 -1.48816,-1.23507 -0.58419,1.52237 -0.58419,1.52237 1.57233,3.04055 c 0.86479,1.67231 2.35985,3.50843 3.32236,4.08029 l 1.75002,1.03973 2,-0.24003 2,-0.24003 -0.13205,-3 z m 91.59261,0.52111 1.82907,-0.97889 1.10477,-3.16915 1.10477,-3.16914 -1.112,-1.33988 c -0.6116,-0.73694 -2.70548,-2.32471 -4.65306,-3.52838 l -3.54105,-2.18849 -2.36786,2.92641 c -1.30232,1.60953 -2.6416,3.977 -2.97618,5.26105 l -0.60832,2.33463 1.54501,1.54502 1.54502,1.54501 2.5694,-0.64488 2.56941,-0.64488 0.63457,-2.52832 0.63457,-2.52833 1.06816,0.35606 c 0.58749,0.19583 1.23279,0.84995 1.43401,1.45361 l 0.36586,1.09756 -2.79314,2.58994 -2.79313,2.58994 1.30552,0 c 0.71804,0 2.12861,-0.4405 3.1346,-0.97889 z m -7.78583,-6.6899 0.35266,-1.83121 1.98631,0 1.9863,0 0,1.5 0,1.5 -2.33896,0.33121 -2.33897,0.33121 0.35266,-1.83121 z"
         id="path3315"
         style="fill:#f6a0a0" />
      <path
         d="m 266.26665,419.44945 -6.0905,-1.32516 -7.62956,-3.17619 -7.62956,-3.1762 -6.23008,-4.02669 -6.23009,-4.0267 -6.09328,-6.14245 -6.09329,-6.14245 -4.06753,-6.27887 c -2.23715,-3.45338 -5.11164,-8.90753 -6.38777,-12.12035 l -2.32023,-5.84147 -8.4063,-0.52445 -8.40631,-0.52446 -6.47061,-3.28431 -6.47061,-3.28431 -5.3571,-5.78631 -5.35711,-5.78631 -2.33478,-5.78458 -2.33479,-5.78458 0,-18.5 0,-18.5 2.39977,-6 2.39977,-6 6.72151,-6.62999 6.72152,-6.62999 5.64937,-2.1137 5.64936,-2.1137 5.47935,-0.64399 5.47935,-0.64399 0,-3.80308 0,-3.80309 7,-5.75868 7,-5.75868 0,-7.30055 0,-7.30056 23.5,0 23.5,0 0,-2 0,-2 13.48095,0 13.48095,0 0.62746,2.5 0.62746,2.5 2.39159,0 2.39159,0 0,-2 0,-2 3.85842,0 3.85842,0 3.65179,-5.5 c 2.00849,-3.025 3.8174,-5.5 4.01981,-5.5 0.2024,0 2.0726,2.475 4.156,5.5 l 3.788,5.5 3.27476,0 3.27477,0 0.61803,1 0.61803,1 10.44099,0 10.44098,0 0,2.11477 0,2.11476 4.25,5.85609 4.25,5.85608 2.75,0.0291 2.75,0.0291 0,3.53518 0,3.53519 1.52253,2.32367 1.52253,2.32367 -1.52253,1.26359 -1.52253,1.26359 0,2.23987 0,2.23988 5.47935,0.64399 5.47935,0.64399 5.55523,2.07848 5.55523,2.07847 5.94772,5.50654 5.94771,5.50654 3.26771,6.63764 3.2677,6.63765 0,19.54206 0,19.54205 -3.23363,6.56844 -3.23363,6.56843 -5.51372,5.21465 -5.51373,5.21466 -5.59711,2.56244 -5.59711,2.56244 -8.15553,0.53382 -8.15554,0.53383 -4.84874,9.87161 -4.84875,9.8716 -7.65125,8.15015 -7.65126,8.15015 -7.29144,4.77116 -7.29145,4.77116 -7.70855,2.96593 -7.70856,2.96594 -5.93366,1.09077 -5.93366,1.09077 -9.56634,-0.0795 -9.56634,-0.0795 -6.0905,-1.32516 z m 13.5905,-14.93251 0,-1.41666 -2.67214,-0.89072 -2.67213,-0.89071 3.17213,-1.31394 3.17214,-1.31394 0,-1.33337 0,-1.33336 -3.25,-0.52464 c -1.7875,-0.28855 -4.33317,-0.64644 -5.65705,-0.79531 l -2.40704,-0.27068 -0.42629,1.25 -0.42629,1.25 2.08334,0 2.08333,0 0,0.83948 c 0,0.46172 -1.125,1.35207 -2.5,1.97857 l -2.5,1.13907 0,1.46017 0,1.46016 4.75,0.63993 c 2.6125,0.35196 5.2,0.79401 5.75,0.98233 0.55,0.18832 1.1125,0.37792 1.25,0.42134 0.1375,0.0434 0.25,-0.55855 0.25,-1.33772 z m 15.75,-1.22864 2.25,-1.4008 0,-2.40551 0,-2.40552 -1.5983,-1.5983 -1.5983,-1.5983 -3.4017,0.63816 -3.4017,0.63816 0,-1.61129 0,-1.61129 -1.44098,0 c -0.79254,0 -1.70009,0.41924 -2.01677,0.93164 l -0.57579,0.93164 0.65298,5.55583 0.65298,5.55582 4.11379,-0.10972 4.11379,-0.10972 2.25,-1.4008 z m -6.08357,-2.78158 -0.54755,-1.42688 1.30788,-1.08545 1.30788,-1.08544 1.21877,1.46852 1.21877,1.46853 -0.64511,1.04381 c -0.35481,0.57409 -1.2454,1.0438 -1.9791,1.0438 l -1.33399,0 -0.54755,-1.42689 z m -24.15796,-4.78881 2.29667,-5.6451 -1.48436,-0.5696 c -0.81639,-0.31328 -1.8351,-0.5696 -2.26378,-0.5696 l -0.77943,0 -2.17035,5.67147 -2.17035,5.67148 1.28156,0.81227 c 2.10604,1.33483 2.88262,0.54637 5.29004,-5.37092 z m 44.49153,2.7157 c 0.68469,-0.825 1.75229,-1.50689 2.37244,-1.51531 0.62016,-0.008 1.73035,-0.39738 2.46709,-0.86435 l 1.33953,-0.84904 -2.10986,-4.13565 c -2.20676,-4.32562 -2.7037,-4.65347 -4.92245,-3.24751 l -1.35324,0.85751 1.10324,2.06143 c 0.60679,1.13379 1.10325,2.76602 1.10325,3.62718 l 0,1.56574 -1.41659,0 -1.4166,0 -2.02251,-2.75 -2.0225,-2.75 -1.54189,1.5167 -1.54188,1.5167 1.96629,3.2333 1.96628,3.2333 2.39226,0 2.39225,0 1.24489,-1.5 z m -54.06809,-3.40437 c 1.13745,-1.5974 2.06809,-3.61602 2.06809,-4.48581 l 0,-1.58144 -3.97523,-2.63069 -3.97523,-2.63068 -1.63739,0.62833 -1.6374,0.62833 1.36263,1.68012 1.36262,1.68013 -1.15976,-0.69521 -1.15976,-0.6952 -1.59024,0.61023 -1.59024,0.61024 0,1.82691 0,1.82692 4.25,2.9797 c 2.3375,1.63883 4.55686,3.01858 4.93191,3.06609 0.37504,0.0475 1.61254,-1.22057 2.75,-2.81797 z m -6.90295,-3.05657 -1.47104,-0.93031 0.74485,-0.74485 0.74485,-0.74485 1.69047,1.69047 1.69048,1.69048 -0.96428,-0.0153 c -0.53036,-0.008 -1.62626,-0.43396 -2.43533,-0.94563 z m 1.97104,-3.03906 -1.5,-0.96937 1.69098,-0.0153 1.69099,-0.0153 0.61803,1 0.61803,1 -0.80901,-0.0153 c -0.44496,-0.008 -1.48402,-0.45154 -2.30902,-0.9847 z m 71.02252,-2.47603 -2.00852,-2.13797 1.15062,-1.15062 1.15062,-1.15062 -1.26573,-1.52511 -1.26573,-1.52511 -2.80592,2.64835 -2.80593,2.64834 3.08304,3.83642 3.08304,3.83643 1.84651,-1.67107 1.84652,-1.67107 -2.00852,-2.13797 z m -21.23063,-3.48064 7.29189,-3.37802 5.80767,-6.20842 5.80767,-6.20842 1.90044,-4.62049 1.90044,-4.62048 10.5,-0.0686 c 5.775,-0.0377 16.575,-0.28799 24,-0.55619 l 13.5,-0.48762 5,-2.28773 c 2.75,-1.25825 6.43639,-3.50268 8.19197,-4.98763 l 3.19197,-2.6999 3.05803,-6.11966 3.05803,-6.11965 -0.01,-16.59028 -0.01,-16.59028 -2.37573,-5.10217 -2.37574,-5.10217 -3.64105,-3.64106 -3.64106,-3.64105 -4.22344,-2.25677 -4.22298,-2.25674 -88.92841,-0.27111 -88.92841,-0.27111 -4.68088,1.55474 -4.68088,1.55474 -4.14776,3.55033 -4.14776,3.55032 -2.41438,4.16605 -2.41438,4.16604 -1.21278,6.27084 -1.21277,6.27084 0.47371,12.22916 0.47371,12.22916 2.04782,4.6224 2.04783,4.62241 3.55489,3.93484 3.55489,3.93485 5.30778,2.64848 5.30778,2.64849 24.04683,0.6869 24.04683,0.6869 1.82323,4.40814 1.82322,4.40813 5.01306,5.48509 5.01305,5.48508 4.60383,2.69802 c 2.53211,1.48392 6.85971,3.50327 9.61689,4.48745 l 5.01306,1.78941 9.5,-0.31262 9.5,-0.31262 7.29189,-3.37802 z m -109.79189,-47.8062 c 0,-0.41958 1.01243,-1.20708 2.24985,-1.75 l 2.24984,-0.98713 2.17359,-6 c 1.19548,-3.3 4.82407,-13.2 8.06353,-22 l 5.88994,-16 7.4946,-0.28861 7.49461,-0.2886 6.8791,18.7886 c 3.7835,10.33374 7.67891,20.70111 8.65648,23.03861 l 1.77738,4.25 1.53554,0 1.53554,0 0,1 0,1 -15.55902,0 -15.55901,0 0.61803,-1 0.61803,-1 1.94099,0 1.94098,0 2.1e-4,-0.75 c 1.1e-4,-0.4125 -1.00837,-3.5625 -2.24106,-7 l -2.24127,-6.25 -6.79448,0 -6.79448,0 -2.00403,4.67523 -2.00404,4.67524 0.29541,1.57476 0.29542,1.57477 2.24416,0.98713 c 1.23429,0.54292 2.24416,1.33042 2.24416,1.75 l 0,0.76287 -6.5,0 -6.5,0 0,-0.76287 z m 24,-17.98372 c 0,-1.49849 -5.21835,-16.36839 -5.60762,-15.97913 -0.53749,0.5375 -5.39238,14.85342 -5.39238,15.90087 l 0,0.82485 5.5,0 5.5,0 0,-0.74659 z m 35,17.74659 0,-1 2.5,0 2.5,0 0,-22 0,-22 -2.5,0 -2.5,0 0,-1 0,-1 19.9349,0 19.9349,0 2.51282,0.95537 c 1.38206,0.52546 4.33995,2.60607 6.57309,4.62359 l 4.06027,3.6682 1.53266,5.27216 1.53266,5.27217 -1.14463,4.54573 -1.14463,4.54573 -3.40661,3.97986 -3.40661,3.97986 -4.49306,1.71592 -4.49306,1.71591 -5.49635,-0.64598 -5.49635,-0.64599 0,3.50873 0,3.50874 2.5,0 2.5,0 0,1 0,1 -16,0 -16,0 0,-1 z m 27.4,-16.4 -3.4,-3.4 0,-3.51255 0,-3.51256 5.25,-6.33744 5.25,-6.33745 -5.80495,4.91842 c -8.18392,6.93407 -9.26096,9.65276 -6.18248,15.60589 l 1.51257,2.92499 2.73743,1.48531 c 4.2001,2.27895 4.34215,1.87011 0.63743,-1.83461 z m 18.2,0 3.4,-3.4 0,-4.02219 0,-4.0222 -4.75,-4.07135 c -6.32138,-5.41822 -7.76653,-5.23794 -1.88884,0.23563 l 4.63884,4.31988 0,3.54526 0,3.54525 -2.114,2.68752 c -2.64657,3.36457 -3.40882,2.81369 -1.41005,-1.01902 2.62923,-5.04162 1.7607,-8.2822 -3.79211,-14.14878 -1.6919,-1.7875 -2.7078,-3.25 -2.25756,-3.25 l 0.81861,0 -1.23432,-1.48727 -1.23432,-1.48726 0.58049,-1.51274 0.58049,-1.51273 -1.09361,0 -1.09362,0 0.58669,2.93346 0.5867,2.93347 -1.36547,6.52624 -1.36547,6.52625 0.84881,3.76351 0.84881,3.76352 1.74609,1.27677 c 0.96036,0.70223 2.60509,1.27678 3.65497,1.27678 l 1.90887,0 3.4,-3.4 z m -14.07432,-1.55034 -1.52568,-2.95034 0,-2.5829 0,-2.58291 2.5,-4.93351 c 1.375,-2.71343 2.49763,-5.28597 2.49474,-5.71676 -0.005,-0.75442 -0.88124,0.4374 -5.741,7.80933 l -2.24626,3.40743 0,2 0,2 1.98156,3.25 1.98156,3.25 1.04038,0 1.04038,0 -1.52568,-2.95034 z m 35.47432,18.50842 c 0,-0.24305 -1.52309,-5.53055 -3.38465,-11.75 -1.86155,-6.21944 -4.84487,-16.37058 -6.62958,-22.55808 l -3.24494,-11.25 -0.87042,0 c -0.47872,0 -0.87041,-0.45 -0.87041,-1 l 0,-1 12.5,0 12.5,0 0,0.91667 c 0,0.50416 -0.50293,1.0843 -1.11761,1.2892 l -1.11762,0.37254 3.23176,11.46079 c 1.77746,6.30344 3.47781,11.87251 3.77855,12.37572 l 0.5468,0.91491 1.30893,-4.91491 1.30893,-4.91492 -1.61452,-7.75 -1.61453,-7.75 -1.35534,0 -1.35535,0 0,-1 0,-1 13,0 13,0 0,1 0,1 -1.60699,0 -1.60699,0 0.47841,1.25 c 0.26312,0.6875 1.49739,5.75 2.74282,11.25 1.24543,5.5 2.5933,10.36751 2.99528,10.81669 l 0.73086,0.8167 3.00193,-10.8167 3.00193,-10.81669 -0.4378,-1.15146 c -0.24079,-0.6333 -1.41917,-1.50065 -2.61862,-1.92744 l -2.18083,-0.77598 5.36057,-0.37865 c 2.94832,-0.20826 5.57332,-0.16592 5.83334,0.0941 0.26001,0.26002 -0.39099,1.33651 -1.44669,2.3922 l -1.91944,1.91944 -2.16838,8.41389 c -1.19261,4.62765 -3.88476,14.2639 -5.98254,21.4139 l -3.81416,13 -6.0541,0.29441 -6.05409,0.29442 -3.32642,-13.29442 -3.32641,-13.29441 -1.7485,6 c -0.96168,3.3 -2.69112,9.2625 -3.84319,13.25 l -2.09468,7.25 -5.95766,0 c -3.27671,0 -5.95765,-0.19886 -5.95765,-0.44192 z m -74.05962,48.01375 1.18527,-1.42816 -1.56282,-3.02218 c -0.85956,-1.66219 -1.56283,-3.49452 -1.56283,-4.07183 0,-2.11063 1.67621,-0.96806 3.06953,2.09231 l 1.43047,3.14197 0.9863,0.10803 0.98631,0.10803 0.29857,-1.55036 0.29857,-1.55036 -2.32471,-3.44964 -2.32471,-3.44964 -2.96016,0 -2.96017,0 0.13205,3 c 0.0726,1.65 0.47836,4.07275 0.90164,5.38388 l 0.76959,2.38388 -1.40164,-0.46675 -1.40164,-0.46674 -0.35761,-1.91714 c -0.42006,-2.25194 -2.02042,-4.41713 -3.26484,-4.41713 l -0.87755,0 0,2.42327 0,2.42328 2.58889,3.07672 2.5889,3.07673 2.28866,0 2.28866,0 1.18527,-1.42817 z m 92.13654,-2.49491 2.92308,-2.92307 -0.0153,-1.82693 c -0.0212,-2.52351 -0.87996,-3.57257 -5.42031,-6.62116 l -3.93562,-2.64255 -1.31438,1.09084 c -0.72292,0.59996 -1.31439,1.65564 -1.31439,2.34595 0,0.69031 -0.675,1.81531 -1.5,2.5 l -1.5,1.24489 0,2.30613 0,2.30612 1.57143,1.57143 c 2.22523,2.22523 3.23773,1.98724 6.52736,-1.53433 l 2.90121,-3.10575 0,1.38351 0,1.38352 -2,1.71245 c -1.1,0.94185 -2,2.16686 -2,2.72224 l 0,1.00979 1.07692,0 c 0.59231,0 2.39231,-1.31538 4,-2.92308 z m -8.50689,-4.96361 -0.54801,-0.8867 1.51316,-1.2558 1.51315,-1.25581 0.59937,0.59937 0.59938,0.59937 -0.59216,1.54313 c -0.65294,1.70153 -2.2314,2.03741 -3.08489,0.65644 z"
         id="path3313"
         style="fill:#f86060" />
      <path
         d="m 266.26665,419.44945 -6.0905,-1.32516 -7.62956,-3.17619 -7.62956,-3.1762 -6.23008,-4.02669 -6.23009,-4.0267 -6.09328,-6.14245 -6.09329,-6.14245 -4.06753,-6.27887 c -2.23715,-3.45338 -5.11164,-8.90753 -6.38777,-12.12035 l -2.32023,-5.84147 -8.4063,-0.52445 -8.40631,-0.52446 -6.47061,-3.28431 -6.47061,-3.28431 -5.3571,-5.78631 -5.35711,-5.78631 -2.33478,-5.78458 -2.33479,-5.78458 0,-18.5 0,-18.5 2.39977,-6 2.39977,-6 6.72151,-6.62999 6.72152,-6.62999 5.64937,-2.1137 5.64936,-2.1137 5.47935,-0.64399 5.47935,-0.64399 0,-3.80308 0,-3.80309 7,-5.75868 7,-5.75868 0,-7.30055 0,-7.30056 23.5,0 23.5,0 0,-2 0,-2 13.48095,0 13.48095,0 0.62746,2.5 0.62746,2.5 2.39159,0 2.39159,0 0,-2 0,-2 3.85842,0 3.85842,0 3.65179,-5.5 c 2.00849,-3.025 3.8174,-5.5 4.01981,-5.5 0.2024,0 2.0726,2.475 4.156,5.5 l 3.788,5.5 3.27476,0 3.27477,0 0.61803,1 0.61803,1 10.44099,0 10.44098,0 0,2.11477 0,2.11476 4.25,5.85609 4.25,5.85608 2.75,0.0291 2.75,0.0291 0,3.53518 0,3.53519 1.52253,2.32367 1.52253,2.32367 -1.52253,1.26359 -1.52253,1.26359 0,2.23987 0,2.23988 5.47935,0.64399 5.47935,0.64399 5.55523,2.07848 5.55523,2.07847 5.94772,5.50654 5.94771,5.50654 3.26771,6.63764 3.2677,6.63765 0,19.54206 0,19.54205 -3.23363,6.56844 -3.23363,6.56843 -5.51372,5.21465 -5.51373,5.21466 -5.59711,2.56244 -5.59711,2.56244 -8.15553,0.53382 -8.15554,0.53383 -4.84874,9.87161 -4.84875,9.8716 -7.65125,8.15015 -7.65126,8.15015 -7.29144,4.77116 -7.29145,4.77116 -7.70855,2.96593 -7.70856,2.96594 -5.93366,1.09077 -5.93366,1.09077 -9.56634,-0.0795 -9.56634,-0.0795 -6.0905,-1.32516 z m 13.91461,-14.91807 0.53809,-1.40224 -0.59777,-0.59776 c -0.32877,-0.32878 -1.53526,-0.59945 -2.6811,-0.60151 l -2.08333,-0.004 3.25,-1.98156 3.25,-1.98156 0,-1.04609 c 0,-1.30248 -1.14863,-1.66368 -7.75,-2.4371 l -5.25,-0.6151 0,1.56667 0,1.56667 2.19249,0.81105 2.19249,0.81106 -2.58219,0.64809 -2.58219,0.64809 -0.63384,1.65176 -0.63384,1.65176 0.54211,0.54211 c 0.51247,0.51246 7.07962,1.77462 10.64798,2.04646 l 1.64301,0.12517 0.53809,-1.40223 z m 15.85817,-0.6954 1.68227,-0.90025 0.65065,-2.05002 0.65066,-2.05003 -1.68126,-2.56592 -1.68126,-2.56592 -3.32366,0.53936 -3.32367,0.53935 -0.57353,-1.49461 -0.57354,-1.4946 -2.25447,0.32013 -2.25447,0.32014 0.12247,0.76443 c 0.0673,0.42043 0.43251,3.50488 0.81146,6.85433 l 0.68899,6.08989 4.68854,-0.70302 c 2.5787,-0.38666 5.44556,-1.10813 6.37082,-1.60326 z m -5.5428,-2.59622 c -0.35171,-0.35172 -0.63948,-1.23948 -0.63948,-1.97282 l 0,-1.33333 1.5,0 1.5,0 0,1.44098 c 0,0.79254 -0.38723,1.68031 -0.86052,1.97282 l -0.86052,0.53183 -0.63948,-0.63948 z m -24.77899,-5.36742 c 2.56684,-6.61967 2.58242,-6.40082 -0.52373,-7.35435 l -2.16324,-0.66408 -2.13247,5.69954 -2.13247,5.69953 0.51432,1.34032 0.51433,1.34031 1.78648,0 1.78647,0 2.35031,-6.06127 z m 47.11413,1.68768 3.89955,-2.21498 -2.18709,-3.87797 c -2.41035,-4.27386 -3.47384,-4.95175 -5.63022,-3.58882 l -1.44315,0.91213 1.20585,2.64655 1.20585,2.64655 -0.57172,0.92507 c -0.31445,0.50878 -1.00481,0.92506 -1.53415,0.92506 l -0.96242,0 -1.13907,-2.5 -1.13908,-2.5 -1.08949,0.0153 c -0.59921,0.008 -1.72379,0.41686 -2.49906,0.90764 l -1.40957,0.89233 1.29071,3.11606 1.29071,3.11605 1.61887,0.93773 1.61886,0.93772 1.78754,-0.54072 c 0.98315,-0.2974 3.54234,-1.53747 5.68708,-2.75571 z m -55.31596,-5.56476 0.6527,-2.43835 -3.40568,-2.84647 -3.40568,-2.84647 -2,0.30856 -2,0.30856 0.25,1.22626 0.25,1.22626 -1.46482,0 -1.46481,0 -1.05811,1.97708 -1.0581,1.97708 2.02292,2.02292 c 1.11261,1.11261 2.49174,2.02292 3.06473,2.02292 0.573,0 2.02295,0.91407 3.22212,2.03126 l 2.1803,2.03126 1.78086,-2.28126 c 0.97948,-1.25469 2.07458,-3.37852 2.43357,-4.71961 z m -8.15866,-0.0616 -0.61803,-1 1,0 c 0.55,0 1.27811,0.45 1.61803,1 l 0.61803,1 -1,0 c -0.55,0 -1.27811,-0.45 -1.61803,-1 z m 73.51557,-1.51876 1.26045,-1.51876 -1.75929,-1.94399 -1.75929,-1.944 0.63853,-1.66399 0.63854,-1.664 -1.13922,-1.37267 -1.13921,-1.37267 -3.07113,3.0026 -3.07113,3.00259 3.38926,3.49683 c 3.83301,3.95466 4.25644,4.09397 6.01249,1.97806 z m -31.24641,-3.98888 6.26915,-1.47808 4.92375,-2.49505 4.92374,-2.49505 5.37199,-5.26209 5.37198,-5.26209 2.80247,-5.75 2.80246,-5.75 10.13265,-0.0648 c 5.57296,-0.0357 16.20765,-0.28424 23.63265,-0.55244 l 13.5,-0.48762 5,-2.28773 c 2.75,-1.25825 6.43639,-3.50268 8.19197,-4.98763 l 3.19197,-2.6999 3.05803,-6.11966 3.05803,-6.11965 -0.01,-16.59028 -0.01,-16.59028 -2.37573,-5.10217 -2.37574,-5.10217 -3.64105,-3.64106 -3.64106,-3.64105 -4.22298,-2.15946 -4.22344,-2.15945 -14.5,-0.91644 -14.5,-0.91644 -74.5,0.41081 -74.5,0.4108 -4.63341,1.71259 -4.63341,1.71258 -4.12364,3.52968 -4.12364,3.52968 -2.41438,4.16605 -2.41438,4.16604 -1.21278,6.27084 -1.21277,6.27084 0.47371,12.22916 0.47371,12.22916 2.04782,4.6224 2.04783,4.62241 3.55489,3.93484 3.55489,3.93485 5.30778,2.6449 5.30778,2.6449 23.79044,0.69525 23.79043,0.69525 2.55941,5.41015 2.55941,5.41015 5.19617,5.32224 5.19616,5.32223 5.22665,2.64854 5.22665,2.64855 5.72734,1.38836 c 3.15004,0.76359 7.30234,1.41919 9.22734,1.45689 l 3.5,0.0685 6.26916,-1.47808 z m -98.04109,-53.24236 3.15252,-2.75 1.46556,-4.5 c 0.80605,-2.475 3.2372,-9.225 5.40255,-15 2.16534,-5.775 4.96948,-13.33097 6.23142,-16.79104 l 2.29442,-6.29104 7.07662,0.29104 7.07662,0.29104 5.34398,14.5 c 2.93918,7.975 6.82166,18.325 8.62773,23 l 3.28376,8.5 1.65838,-0.13889 1.65837,-0.13889 0,0.88889 0,0.88889 -15.25,-0.0997 -15.25,-0.0997 2.5,-0.73885 2.5,-0.73884 -0.27817,-1.41148 c -0.15299,-0.77627 -1.22035,-3.99893 -2.37192,-7.16143 l -2.09376,-5.75 -7.24222,0 -7.24221,0 -1.63586,4.28343 c -0.89972,2.35589 -1.63586,5.29203 -1.63586,6.52475 l 0,2.24132 2.5,0.9505 c 3.98697,1.51584 2.96728,2 -4.21223,2 l -6.71222,0 3.15252,-2.75 z m 22.27193,-15.78226 c 0,-0.29274 -1.39865,-4.15909 -3.10812,-8.59188 l -3.10812,-8.05962 -0.7554,0.84188 c -0.78481,0.87465 -2.27922,4.81529 -4.58561,12.09188 l -1.34709,4.25 6.45217,0 c 3.54869,0 6.45217,-0.23952 6.45217,-0.53226 z m 33.99988,17.28226 1.2e-4,-0.75 2.5,0 2.5,0 0,-22.43358 0,-22.43357 -2.75,-0.46217 -2.75,-0.46216 21,0.14574 21,0.14574 3.48616,2.04797 3.48615,2.04796 3.01385,4.28818 3.01384,4.28817 0,6.73689 0,6.73689 -2.75112,4.15721 -2.75111,4.15722 -4.22972,2.15784 -4.22971,2.15784 -4.01917,0.10752 c -2.21054,0.0591 -5.48167,-0.26376 -7.26917,-0.71754 l -3.25,-0.82506 0,4.07945 0,4.07946 3.16667,0 3.16666,0 -0.64837,0.64838 -0.64838,0.64837 -15.51841,0.10163 -15.51842,0.10162 1.3e-4,-0.75 z m 38.00012,-10.85572 c 0,-0.37417 -0.63126,-0.92254 -1.4028,-1.21861 l -1.4028,-0.5383 -1.8472,1.4205 -1.8472,1.42051 3.25,-0.2019 3.25,-0.2019 0,-0.6803 z m 7.178,-4.07383 2.678,-1.8541 1.16896,-3.54199 1.16896,-3.54198 -1.21436,-2.93173 -1.21436,-2.93173 -4.92505,-3.53829 -4.92505,-3.5383 -0.57426,-1.72116 c -0.31585,-0.94665 -1.07162,-2.93613 -1.67949,-4.42108 l -1.10523,-2.69991 -0.76275,1.19991 c -0.41951,0.65995 -0.76964,2.3996 -0.77806,3.86588 l -0.0153,2.66597 -4.25,3.26351 c -2.3375,1.79493 -5.02749,4.19525 -5.97776,5.33403 l -1.72778,2.07052 -0.0222,3.85 -0.0222,3.85 3.4,3.4 3.4,3.4 1.82286,0 1.82286,0 -3.17978,-2.90429 -3.17979,-2.90428 -0.65636,-2.61513 -0.65635,-2.61512 1.17584,-2.83873 1.17584,-2.83873 4.05983,-3.89186 4.05983,-3.89186 -1.04991,2 c -0.57745,1.1 -2.20753,3.54993 -3.62239,5.44428 l -2.57248,3.44428 0,3.22899 0,3.229 2.58889,3.07672 c 1.4239,1.6922 2.99977,3.07673 3.50195,3.07673 l 0.91305,0 -2.00195,-3.73519 c -1.10107,-2.05436 -2.00194,-4.59257 -2.00194,-5.64047 0,-1.79245 4.05149,-10.90618 4.60311,-10.35456 0.14061,0.1406 -0.20762,2.42776 -0.77383,5.08257 l -1.02948,4.82692 0.6614,4.41055 0.6614,4.41054 2.64876,1.38783 2.64876,1.38782 1.53994,-0.55073 c 0.84697,-0.3029 2.74504,-1.38508 4.21794,-2.40483 z m -0.3541,-6.77108 0.38871,-4.07595 -1.66984,-2.73671 -1.66984,-2.73671 2.56353,2.80576 2.56354,2.80577 0,2.2531 0,2.25311 -1.2824,1.75379 -1.2824,1.75379 0.3887,-4.07595 z m 22.06316,20.15359 c -0.48033,-1.26338 -3.38481,-10.93838 -6.4544,-21.50001 l -5.58107,-19.20295 -1.44885,-2.25 -1.44885,-2.25 12.71419,0 12.71418,0 -1.58431,1.25 -1.5843,1.25 3.64317,12.18561 c 2.00375,6.70208 3.90845,12.44236 4.23267,12.75616 l 0.58949,0.57055 1.25475,-5.60681 1.25475,-5.60681 -1.2338,-6.53891 -1.23381,-6.53892 -1.86043,-1.86044 -1.86044,-1.86043 13.25,0.116 13.25,0.116 -1.75,0.45733 c -2.17726,0.56897 -2.24878,-0.50117 0.93851,14.04275 l 2.6885,12.26792 0.68191,0 0.68191,0 3.13532,-10.75 c 1.72443,-5.9125 3.13274,-11.28698 3.12959,-11.9433 l -0.006,-1.19329 -2.22251,-1.55671 -2.2225,-1.5567 4.7225,0 c 5.24376,0 5.35102,0.11114 3.23048,3.3475 l -1.49204,2.27713 -5.8358,20.43768 -5.83581,20.43769 -5.93337,0.29152 -5.93337,0.29152 -2.88363,-11.46687 c -1.58601,-6.30678 -3.2149,-12.00285 -3.61976,-12.65794 l -0.73612,-1.19106 -1.55845,4.86641 c -0.85715,2.67653 -2.50466,8.46642 -3.66113,12.86642 l -2.10268,8 -5.5777,0 -5.57771,0 -0.87334,-2.29704 z m -74.82132,51.76186 1.93426,-1.03519 0,-1.51447 c 0,-0.83297 -0.70818,-2.88395 -1.57374,-4.55775 -0.86555,-1.6738 -1.35401,-3.263 -1.08545,-3.53155 0.26855,-0.26856 1.26137,1.14088 2.20626,3.13209 l 1.71798,3.62037 1.11747,-0.36749 1.11748,-0.36749 0.30148,-2.03376 0.30148,-2.03377 -2.64037,-3.1379 -2.64038,-3.13791 -2.28866,0 -2.28866,0 -1.28475,1.54803 -1.28476,1.54803 1.66231,3.4859 c 2.05282,4.3048 2.08654,5.01501 0.16231,3.41804 l -1.5,-1.24489 0,-1.75511 0,-1.75511 -1.34201,-1.11377 -1.34201,-1.11377 -0.65799,0.65799 c -0.36189,0.3619 -0.65799,1.89838 -0.65799,3.4144 l 0,2.75641 3.07692,3.07693 c 3.36595,3.36594 4.10894,3.583 6.98882,2.04174 z m 91.38946,-1.586 1.61877,-0.62118 1.46302,-2.82916 c 0.80465,-1.55604 1.46301,-3.72989 1.46301,-4.83078 l 0,-2.00162 -4.43018,-3.04804 c -2.43659,-1.67642 -4.79909,-3.04519 -5.25,-3.04172 -0.83075,0.006 -4.0869,4.91998 -5.55814,8.3873 l -0.80349,1.89362 1.60927,2.45607 1.60928,2.45606 2.32033,-0.44356 2.32034,-0.44356 -0.51569,1.34387 -0.5157,1.34388 1.5252,0 c 0.83886,0 2.25365,-0.27953 3.14398,-0.62118 z m -0.81683,-5.87882 c 0.31659,-0.825 0.75246,-1.5 0.96862,-1.5 0.21615,0 0.39301,0.675 0.39301,1.5 l 0,1.5 -0.96862,0 -0.96861,0 0.5756,-1.5 z m -5.48387,-1.93765 0.3455,-1.66799 1,0.0528 1,0.0528 0,1.16667 0,1.16666 -1.3455,0.4485 -1.34551,0.44851 0.34551,-1.66799 z"
         id="path3311"
         style="fill:#966464" />
      <path
         d="m 268.86021,419.16771 c -9.38072,-1.79132 -13.44105,-3.15789 -21.79781,-7.33641 -16.87358,-8.43709 -29.50203,-21.78981 -37.52982,-39.68224 l -2.83166,-6.31124 -8.4587,-0.44397 -8.4587,-0.44397 -5.87899,-2.87632 -5.879,-2.87633 -4.82459,-4.82459 -4.82459,-4.82459 -2.43052,-5.30895 -2.43052,-5.30896 -1.00765,-5.31332 -1.00765,-5.31333 0,-10.72702 0,-10.72702 1.00765,-5.31333 1.00765,-5.31333 2.43052,-5.30895 2.43052,-5.30895 4.83364,-4.83364 4.83363,-4.83363 5.4782,-2.58985 5.47819,-2.58984 3.5,-0.54383 c 1.925,-0.29911 5.1875,-0.81033 7.25,-1.13604 l 3.75,-0.59222 0,-3.83256 0,-3.83257 6.5,-5.70668 6.5,-5.70668 0,-6.91544 0,-6.91544 23.5,0 23.5,0 0,-2.5 0,-2.5 12.94098,0 12.94099,0 0.78258,1.25 c 0.43042,0.6875 0.79448,1.925 0.80902,2.75 l 0.0264,1.5 2.75,0.31642 2.75,0.31642 0,-2.56642 3e-5,-2.56642 3.91483,0 3.91483,0 3.67034,-5 c 2.01869,-2.75 3.8148,-5 3.99136,-5 0.17657,0 1.93749,2.25 3.91317,5 l 3.59214,5 3.50167,0 3.50166,0 0,1.5 0,1.5 11,0 11,0 0,1.95879 0,1.95879 4.14397,5.54121 4.14396,5.54121 2.35604,0 2.35603,0 0,3.27749 0,3.2775 1.5567,2.2225 1.55671,2.22251 -1.55671,2.22251 c -0.85618,1.22237 -1.5567,3.00198 -1.5567,3.95468 l 0,1.73218 3.25,0.49842 c 1.7875,0.27412 4.99529,0.77575 7.12843,1.11472 2.13313,0.33896 6.19412,1.64042 9.02443,2.89211 l 5.146,2.27581 5.03191,4.90478 5.03191,4.90479 2.67967,5.5 2.67968,5.5 1.01398,5.38649 1.01399,5.38649 -0.0208,11.11351 -0.0208,11.11351 -1.28527,6.13149 -1.28528,6.13149 -3.44388,5.73165 -3.44389,5.73165 -3.96958,3.42074 -3.96959,3.42075 -5.39118,2.63766 -5.39118,2.63766 -8.94485,0.57845 -8.94484,0.57846 -2.35399,5.80224 c -3.21588,7.92668 -8.11678,15.81544 -13.77188,22.16799 l -4.73709,5.32131 -6.90697,5.12035 -6.90697,5.12035 -7.5243,3.47644 -7.5243,3.47645 -6.33164,1.49844 -6.33164,1.49844 -9.5,0.48631 -9.5,0.48631 -7.1398,-1.36339 z m 10.96391,-14.99347 0.53809,-1.40224 -0.59777,-0.59776 c -0.32877,-0.32878 -1.53526,-0.59945 -2.6811,-0.60151 l -2.08333,-0.004 3.25,-1.98156 3.25,-1.98156 0,-1.04609 c 0,-1.30248 -1.14863,-1.66368 -7.75,-2.4371 l -5.25,-0.6151 0,1.56667 0,1.56667 2.19249,0.81105 2.19249,0.81106 -2.58219,0.64809 -2.58219,0.64809 -0.63384,1.65176 -0.63384,1.65176 0.54211,0.54211 c 0.51247,0.51246 7.07962,1.77462 10.64798,2.04646 l 1.64301,0.12517 0.53809,-1.40223 z m 15.85817,-0.6954 1.68227,-0.90025 0.65065,-2.05002 0.65066,-2.05003 -1.68126,-2.56592 -1.68126,-2.56592 -3.32366,0.53936 -3.32367,0.53935 -0.57353,-1.49461 -0.57354,-1.4946 -2.25447,0.32013 -2.25447,0.32014 0.12247,0.76443 c 0.0673,0.42043 0.43251,3.50488 0.81146,6.85433 l 0.68899,6.08989 4.68854,-0.70302 c 2.5787,-0.38666 5.44556,-1.10813 6.37082,-1.60326 z m -5.5428,-2.59622 c -0.35171,-0.35172 -0.63948,-1.23948 -0.63948,-1.97282 l 0,-1.33333 1.5,0 1.5,0 0,1.44098 c 0,0.79254 -0.38723,1.68031 -0.86052,1.97282 l -0.86052,0.53183 -0.63948,-0.63948 z M 265.3605,395.5152 c 2.56684,-6.61967 2.58242,-6.40082 -0.52373,-7.35435 l -2.16324,-0.66408 -2.13247,5.69954 -2.13247,5.69953 0.51432,1.34032 0.51433,1.34031 1.78648,0 1.78647,0 2.35031,-6.06127 z m 47.11413,1.68768 3.89955,-2.21498 -2.18709,-3.87797 c -2.41035,-4.27386 -3.47384,-4.95175 -5.63022,-3.58882 l -1.44315,0.91213 1.20585,2.64655 1.20585,2.64655 -0.57172,0.92507 c -0.31445,0.50878 -1.00481,0.92506 -1.53415,0.92506 l -0.96242,0 -1.13907,-2.5 -1.13908,-2.5 -1.08949,0.0153 c -0.59921,0.008 -1.72379,0.41686 -2.49906,0.90764 l -1.40957,0.89233 1.29071,3.11606 1.29071,3.11605 1.61887,0.93773 1.61886,0.93772 1.78754,-0.54072 c 0.98315,-0.2974 3.54234,-1.53747 5.68708,-2.75571 z m -55.31596,-5.56476 0.6527,-2.43835 -3.40568,-2.84647 -3.40568,-2.84647 -2,0.30856 -2,0.30856 0.25,1.22626 0.25,1.22626 -1.46482,0 -1.46481,0 -1.05811,1.97708 -1.0581,1.97708 2.02292,2.02292 c 1.11261,1.11261 2.49174,2.02292 3.06473,2.02292 0.573,0 2.02295,0.91407 3.22212,2.03126 l 2.1803,2.03126 1.78086,-2.28126 c 0.97948,-1.25469 2.07458,-3.37852 2.43357,-4.71961 z m -8.15866,-0.0616 -0.61803,-1 1,0 c 0.55,0 1.27811,0.45 1.61803,1 l 0.61803,1 -1,0 c -0.55,0 -1.27811,-0.45 -1.61803,-1 z m 73.51557,-1.51876 1.26045,-1.51876 -1.75929,-1.94399 -1.75929,-1.944 0.63853,-1.66399 0.63854,-1.664 -1.13922,-1.37267 -1.13921,-1.37267 -3.07113,3.0026 -3.07113,3.00259 3.38926,3.49683 c 3.83301,3.95466 4.25644,4.09397 6.01249,1.97806 z m -31.24641,-3.98888 6.26915,-1.47808 4.92375,-2.49505 4.92374,-2.49505 5.37199,-5.26209 5.37198,-5.26209 2.80247,-5.75 2.80246,-5.75 22.34514,0 22.34513,0 5.48915,-2.05375 5.48914,-2.05375 4.91257,-4.41682 4.91256,-4.41682 2.38581,-5.27943 2.3858,-5.27943 0,-16.5 0,-16.5 -2.13733,-4.62241 -2.13733,-4.6224 -3.70212,-4.09781 -3.70213,-4.09782 -5.66055,-2.77978 -5.66054,-2.77978 -89,0 -89,0 -5,2.65039 -5,2.65039 -3.73348,3.74975 -3.73347,3.74976 -2.26653,4.59985 -2.26652,4.59986 0,17.5 0,17.5 2.21954,4.5 2.21954,4.5 3.72282,3.83063 3.72283,3.83063 5.05763,2.66937 5.05764,2.66937 23.75166,0.31544 23.75166,0.31543 2.59819,5.49212 2.59818,5.49211 5.19617,5.32224 5.19616,5.32223 5.22665,2.64854 5.22665,2.64855 5.72734,1.38836 c 3.15004,0.76359 7.30234,1.41919 9.22734,1.45689 l 3.5,0.0685 6.26916,-1.47808 z m -98.04109,-53.24236 3.15252,-2.75 1.46556,-4.5 c 0.80605,-2.475 3.2372,-9.225 5.40255,-15 2.16534,-5.775 4.96948,-13.33097 6.23142,-16.79104 l 2.29442,-6.29104 7.07662,0.29104 7.07662,0.29104 5.34398,14.5 c 2.93918,7.975 6.82166,18.325 8.62773,23 l 3.28376,8.5 1.65838,-0.13889 1.65837,-0.13889 0,0.88889 0,0.88889 -15.25,-0.0997 -15.25,-0.0997 2.5,-0.73885 2.5,-0.73884 -0.27817,-1.41148 c -0.15299,-0.77627 -1.22035,-3.99893 -2.37192,-7.16143 l -2.09376,-5.75 -7.24222,0 -7.24221,0 -1.63586,4.28343 c -0.89972,2.35589 -1.63586,5.29203 -1.63586,6.52475 l 0,2.24132 2.5,0.9505 c 3.98697,1.51584 2.96728,2 -4.21223,2 l -6.71222,0 3.15252,-2.75 z m 22.27193,-15.78226 c 0,-0.29274 -1.39865,-4.15909 -3.10812,-8.59188 l -3.10812,-8.05962 -0.7554,0.84188 c -0.78481,0.87465 -2.27922,4.81529 -4.58561,12.09188 l -1.34709,4.25 6.45217,0 c 3.54869,0 6.45217,-0.23952 6.45217,-0.53226 z m 33.99988,17.28226 1.2e-4,-0.75 2.5,0 2.5,0 0,-22.43358 0,-22.43357 -2.75,-0.46217 -2.75,-0.46216 21,0.14574 21,0.14574 3.48616,2.04797 3.48615,2.04796 3.01385,4.28818 3.01384,4.28817 0,6.73689 0,6.73689 -2.75112,4.15721 -2.75111,4.15722 -4.22972,2.15784 -4.22971,2.15784 -4.01917,0.10752 c -2.21054,0.0591 -5.48167,-0.26376 -7.26917,-0.71754 l -3.25,-0.82506 0,4.07945 0,4.07946 3.16667,0 3.16666,0 -0.64837,0.64838 -0.64838,0.64837 -15.51841,0.10163 -15.51842,0.10162 1.3e-4,-0.75 z m 38.00012,-10.85572 c 0,-0.37417 -0.63126,-0.92254 -1.4028,-1.21861 l -1.4028,-0.5383 -1.8472,1.4205 -1.8472,1.42051 3.25,-0.2019 3.25,-0.2019 0,-0.6803 z m 7.178,-4.07383 2.678,-1.8541 1.16896,-3.54199 1.16896,-3.54198 -1.21436,-2.93173 -1.21436,-2.93173 -4.92505,-3.53829 -4.92505,-3.5383 -0.57426,-1.72116 c -0.31585,-0.94665 -1.07162,-2.93613 -1.67949,-4.42108 l -1.10523,-2.69991 -0.76275,1.19991 c -0.41951,0.65995 -0.76964,2.3996 -0.77806,3.86588 l -0.0153,2.66597 -4.25,3.26351 c -2.3375,1.79493 -5.02749,4.19525 -5.97776,5.33403 l -1.72778,2.07052 -0.0222,3.85 -0.0222,3.85 3.4,3.4 3.4,3.4 1.82286,0 1.82286,0 -3.17978,-2.90429 -3.17979,-2.90428 -0.65636,-2.61513 -0.65635,-2.61512 1.17584,-2.83873 1.17584,-2.83873 4.05983,-3.89186 4.05983,-3.89186 -1.04991,2 c -0.57745,1.1 -2.20753,3.54993 -3.62239,5.44428 l -2.57248,3.44428 0,3.22899 0,3.229 2.58889,3.07672 c 1.4239,1.6922 2.99977,3.07673 3.50195,3.07673 l 0.91305,0 -2.00195,-3.73519 c -1.10107,-2.05436 -2.00194,-4.59257 -2.00194,-5.64047 0,-1.79245 4.05149,-10.90618 4.60311,-10.35456 0.14061,0.1406 -0.20762,2.42776 -0.77383,5.08257 l -1.02948,4.82692 0.6614,4.41055 0.6614,4.41054 2.64876,1.38783 2.64876,1.38782 1.53994,-0.55073 c 0.84697,-0.3029 2.74504,-1.38508 4.21794,-2.40483 z m -0.3541,-6.77108 0.38871,-4.07595 -1.66984,-2.73671 -1.66984,-2.73671 2.56353,2.80576 2.56354,2.80577 0,2.2531 0,2.25311 -1.2824,1.75379 -1.2824,1.75379 0.3887,-4.07595 z m 22.06316,20.15359 c -0.48033,-1.26338 -3.38481,-10.93838 -6.4544,-21.50001 l -5.58107,-19.20295 -1.44885,-2.25 -1.44885,-2.25 12.71419,0 12.71418,0 -1.58431,1.25 -1.5843,1.25 3.64317,12.18561 c 2.00375,6.70208 3.90845,12.44236 4.23267,12.75616 l 0.58949,0.57055 1.25475,-5.60681 1.25475,-5.60681 -1.2338,-6.53891 -1.23381,-6.53892 -1.86043,-1.86044 -1.86044,-1.86043 13.25,0.116 13.25,0.116 -1.75,0.45733 c -2.17726,0.56897 -2.24878,-0.50117 0.93851,14.04275 l 2.6885,12.26792 0.68191,0 0.68191,0 3.13532,-10.75 c 1.72443,-5.9125 3.13274,-11.28698 3.12959,-11.9433 l -0.006,-1.19329 -2.22251,-1.55671 -2.2225,-1.5567 4.7225,0 c 5.24376,0 5.35102,0.11114 3.23048,3.3475 l -1.49204,2.27713 -5.8358,20.43768 -5.83581,20.43769 -5.93337,0.29152 -5.93337,0.29152 -2.88363,-11.46687 c -1.58601,-6.30678 -3.2149,-12.00285 -3.61976,-12.65794 l -0.73612,-1.19106 -1.55845,4.86641 c -0.85715,2.67653 -2.50466,8.46642 -3.66113,12.86642 l -2.10268,8 -5.5777,0 -5.57771,0 -0.87334,-2.29704 z m -74.82132,51.76186 1.93426,-1.03519 0,-1.51447 c 0,-0.83297 -0.70818,-2.88395 -1.57374,-4.55775 -0.86555,-1.6738 -1.35401,-3.263 -1.08545,-3.53155 0.26855,-0.26856 1.26137,1.14088 2.20626,3.13209 l 1.71798,3.62037 1.11747,-0.36749 1.11748,-0.36749 0.30148,-2.03376 0.30148,-2.03377 -2.64037,-3.1379 -2.64038,-3.13791 -2.28866,0 -2.28866,0 -1.28475,1.54803 -1.28476,1.54803 1.66231,3.4859 c 2.05282,4.3048 2.08654,5.01501 0.16231,3.41804 l -1.5,-1.24489 0,-1.75511 0,-1.75511 -1.34201,-1.11377 -1.34201,-1.11377 -0.65799,0.65799 c -0.36189,0.3619 -0.65799,1.89838 -0.65799,3.4144 l 0,2.75641 3.07692,3.07693 c 3.36595,3.36594 4.10894,3.583 6.98882,2.04174 z m 91.38946,-1.586 1.61877,-0.62118 1.46302,-2.82916 c 0.80465,-1.55604 1.46301,-3.72989 1.46301,-4.83078 l 0,-2.00162 -4.43018,-3.04804 c -2.43659,-1.67642 -4.79909,-3.04519 -5.25,-3.04172 -0.83075,0.006 -4.0869,4.91998 -5.55814,8.3873 l -0.80349,1.89362 1.60927,2.45607 1.60928,2.45606 2.32033,-0.44356 2.32034,-0.44356 -0.51569,1.34387 -0.5157,1.34388 1.5252,0 c 0.83886,0 2.25365,-0.27953 3.14398,-0.62118 z m -0.81683,-5.87882 c 0.31659,-0.825 0.75246,-1.5 0.96862,-1.5 0.21615,0 0.39301,0.675 0.39301,1.5 l 0,1.5 -0.96862,0 -0.96861,0 0.5756,-1.5 z m -5.48387,-1.93765 0.3455,-1.66799 1,0.0528 1,0.0528 0,1.16667 0,1.16666 -1.3455,0.4485 -1.34551,0.44851 0.34551,-1.66799 z"
         id="path3309"
         style="fill:#fa0202" />
      <path
         d="m 269.21735,419.52485 c -9.38072,-1.79132 -13.44105,-3.15789 -21.79781,-7.33641 -16.87358,-8.43709 -29.50203,-21.78981 -37.52982,-39.68224 l -2.83166,-6.31124 -8.4587,-0.44397 -8.4587,-0.44397 -5.87899,-2.87632 -5.879,-2.87633 -4.82459,-4.82459 -4.82459,-4.82459 -2.43052,-5.30895 -2.43052,-5.30896 -1.00765,-5.31332 -1.00765,-5.31333 0,-10.72702 0,-10.72702 1.00765,-5.31333 1.00765,-5.31333 2.43052,-5.30895 2.43052,-5.30895 4.83364,-4.83364 4.83363,-4.83363 5.4782,-2.58985 5.47819,-2.58984 3.5,-0.54383 c 1.925,-0.29911 5.1875,-0.81033 7.25,-1.13604 l 3.75,-0.59222 0,-3.83256 0,-3.83257 6.5,-5.70668 6.5,-5.70668 0,-6.91544 0,-6.91544 23.5,0 23.5,0 0,-2.5 0,-2.5 12.94098,0 12.94099,0 0.78258,1.25 c 0.43042,0.6875 0.79448,1.925 0.80902,2.75 l 0.0264,1.5 2.75,0.31642 2.75,0.31642 0,-2.56642 3e-5,-2.56642 3.91483,0 3.91483,0 3.67034,-5 c 2.01869,-2.75 3.8148,-5 3.99136,-5 0.17657,0 1.93749,2.25 3.91317,5 l 3.59214,5 3.50167,0 3.50166,0 0,1.5 0,1.5 11,0 11,0 0,1.95879 0,1.95879 4.14397,5.54121 4.14396,5.54121 2.35604,0 2.35603,0 0,3.27749 0,3.2775 1.5567,2.2225 1.55671,2.22251 -1.55671,2.22251 c -0.85618,1.22237 -1.5567,3.00198 -1.5567,3.95468 l 0,1.73218 3.25,0.49842 c 1.7875,0.27412 4.99529,0.77575 7.12843,1.11472 2.13313,0.33896 6.19412,1.64042 9.02443,2.89211 l 5.146,2.27581 5.03191,4.90478 5.03191,4.90479 2.67967,5.5 2.67968,5.5 1.01398,5.38649 1.01399,5.38649 -0.0208,11.11351 -0.0208,11.11351 -1.28527,6.13149 -1.28528,6.13149 -3.44388,5.73165 -3.44389,5.73165 -3.96958,3.42074 -3.96959,3.42075 -5.39118,2.63766 -5.39118,2.63766 -8.94485,0.57845 -8.94484,0.57846 -2.35399,5.80224 c -3.21588,7.92668 -8.11678,15.81544 -13.77188,22.16799 l -4.73709,5.32131 -6.90697,5.12035 -6.90697,5.12035 -7.5243,3.47644 -7.5243,3.47645 -6.33164,1.49844 -6.33164,1.49844 -9.5,0.48631 -9.5,0.48631 -7.1398,-1.36339 z m 29.1797,-10.09713 5.9601,-1.50588 9.47827,-4.65096 9.47827,-4.65095 8.04635,-8.09316 8.04636,-8.09316 3.60224,-7 c 1.98124,-3.85 4.36882,-9.3625 5.30575,-12.25 l 1.70349,-5.25 9.38212,0 9.38212,0 5.48915,-2.05375 5.48914,-2.05375 4.91257,-4.41682 4.91256,-4.41682 2.38581,-5.27943 2.3858,-5.27943 0,-16.5 0,-16.5 -2.13733,-4.62241 -2.13733,-4.6224 -3.70212,-4.09781 -3.70213,-4.09782 -5.66055,-2.77978 -5.66054,-2.77978 -16.25,-0.33604 -16.25,-0.33604 0,-15.41396 0,-15.41396 -1,0 -1,0 0,15.5 0,15.5 -1.5,0 -1.5,0 0,-14.11663 0,-14.11663 -2.25,0.60297 c -1.2375,0.33164 -4.1625,0.60912 -6.5,0.61663 l -4.25,0.0137 0,13.5 0,13.5 -1.5,0 -1.5,0 0,-17 0,-17 -3.5,0 -3.5,0 0,17 0,17 -7,0 -7,0 0,-10.76833 0,-10.76833 4.11925,-4.98167 4.11925,-4.98167 -11.61925,-0.28174 -11.61925,-0.28173 0,-1.96827 0,-1.96826 -1.5,0 -1.5,0 0,18 0,18 -4.46617,0 -4.46617,0 -0.28383,-10.75 -0.28383,-10.75 -7.75,-0.29206 -7.75,-0.29207 0,11.04207 0,11.04206 -10,0 -10,0 0,-15 0,-15 -1.75,-0.001 -1.75,-0.001 0.29911,14.90703 0.29912,14.90703 -18.79912,0.3686 -18.79911,0.36859 -5,2.62626 -5,2.62626 -3.73348,3.74975 -3.73347,3.74976 -2.26653,4.59985 -2.26652,4.59986 0,17.5 0,17.5 2.21954,4.5 2.21954,4.5 3.72282,3.83063 3.72283,3.83063 5.05763,2.61809 5.05764,2.61808 10.74116,0.41161 10.74116,0.4116 1.10261,4.13968 c 0.60643,2.27682 2.88452,7.57714 5.06241,11.77847 l 3.95981,7.63879 5.55421,6.13759 5.5542,6.1376 6.14222,4.29495 6.14222,4.29495 6.0655,2.65194 c 3.33603,1.45857 8.51103,3.30936 11.5,4.11286 l 5.4345,1.46091 10.5399,0.0658 10.5399,0.0658 5.9601,-1.50589 z"
         id="path3307"
         style="fill:#d60404" />
      <path
         d="m 269.21735,419.52485 c -9.38072,-1.79132 -13.44105,-3.15789 -21.79781,-7.33641 -16.87358,-8.43709 -29.50203,-21.78981 -37.52982,-39.68224 l -2.83166,-6.31124 -8.4587,-0.44397 -8.4587,-0.44397 -5.87899,-2.87632 -5.879,-2.87633 -4.82459,-4.82459 -4.82459,-4.82459 -2.43052,-5.30895 -2.43052,-5.30896 -1.00765,-5.31332 -1.00765,-5.31333 0,-10.72702 0,-10.72702 1.00765,-5.31333 1.00765,-5.31333 2.43052,-5.30895 2.43052,-5.30895 4.83364,-4.83364 4.83363,-4.83363 5.4782,-2.58985 5.47819,-2.58984 3.5,-0.54383 c 1.925,-0.29911 5.1875,-0.81033 7.25,-1.13604 l 3.75,-0.59222 0,-3.83256 0,-3.83257 6.5,-5.70668 6.5,-5.70668 0,-6.91544 0,-6.91544 23.5,0 23.5,0 0,-2.5 0,-2.5 12.94098,0 12.94099,0 0.78258,1.25 c 0.43042,0.6875 0.79448,1.925 0.80902,2.75 l 0.0264,1.5 2.75,0.31642 2.75,0.31642 0,-2.56642 3e-5,-2.56642 3.91483,0 3.91483,0 3.67034,-5 c 2.01869,-2.75 3.8148,-5 3.99136,-5 0.17657,0 1.93749,2.25 3.91317,5 l 3.59214,5 3.50167,0 3.50166,0 0,1.5 0,1.5 11,0 11,0 0,1.95879 0,1.95879 4.14397,5.54121 4.14396,5.54121 2.35604,0 2.35603,0 0,3.27749 0,3.2775 1.5567,2.2225 1.55671,2.22251 -1.55671,2.22251 c -0.85618,1.22237 -1.5567,3.00198 -1.5567,3.95468 l 0,1.73218 3.25,0.49842 c 1.7875,0.27412 4.99529,0.77575 7.12843,1.11472 2.13313,0.33896 6.19412,1.64042 9.02443,2.89211 l 5.146,2.27581 5.03191,4.90478 5.03191,4.90479 2.67967,5.5 2.67968,5.5 1.01398,5.38649 1.01399,5.38649 -0.0208,11.11351 -0.0208,11.11351 -1.28527,6.13149 -1.28528,6.13149 -3.44388,5.73165 -3.44389,5.73165 -3.96958,3.42074 -3.96959,3.42075 -5.39118,2.63766 -5.39118,2.63766 -8.94485,0.57845 -8.94484,0.57846 -2.35399,5.80224 c -3.21588,7.92668 -8.11678,15.81544 -13.77188,22.16799 l -4.73709,5.32131 -6.90697,5.12035 -6.90697,5.12035 -7.5243,3.47644 -7.5243,3.47645 -6.33164,1.49844 -6.33164,1.49844 -9.5,0.48631 -9.5,0.48631 -7.1398,-1.36339 z m 35.1398,-11.2646 9,-2.95452 7.17151,-4.72472 7.1715,-4.72471 6.00768,-6.42223 6.00768,-6.42223 3.67729,-6.57561 c 2.02251,-3.61659 4.57716,-9.21105 5.677,-12.43213 l 1.9997,-5.85651 10.64382,-0.40828 10.64382,-0.40827 5.04015,-2.60922 5.04014,-2.60922 4.05407,-4.39815 4.05407,-4.39814 1.90579,-4.94135 1.90578,-4.94135 0,-16 0,-16 -2.36327,-5.22705 -2.36327,-5.22705 -4.28732,-3.95191 -4.28731,-3.95191 -4.34942,-2.26171 -4.34941,-2.26172 -9.80758,-0.42794 -9.80758,-0.42795 0.19448,-8.84797 0.19448,-8.84798 -1.79454,-2.73881 -1.79454,-2.73881 -1.46433,2.20541 -1.46433,2.2054 -3.37803,0 -3.37803,0 0,-7.35714 0,-7.35715 -4.5,0 -4.5,0 0,2.85715 0,2.85714 -6,0 -6,0 0,-2.91821 c 0,-1.60502 -0.27314,-3.63002 -0.60699,-4.5 l -0.60699,-1.58179 -1.35783,0 -1.35782,0 -1.17208,-2.19005 -1.17208,-2.19005 -1.7734,2.19005 -1.7734,2.19005 -1.5897,0 -1.58971,0 0,2.5 0,2.5 -11.5,0 -11.5,0 0,-1.8 0,-1.8 -1.2,-1.2 -1.2,-1.2 -3.8,0 -3.8,0 0,3 0,3 -2.5,0 -2.5,0 0,4 0,4 -2.41667,0 -2.41666,0 -0.45268,-1.25 -0.45268,-1.25 -2.11709,1.25 c -1.16439,0.6875 -2.57319,1.25 -3.13065,1.25 l -1.01357,0 0,-4.5 0,-4.5 -1,0 -1,0 0,3 0,3 -5.37756,0 -5.37755,0 -1.15461,1.39122 -1.15461,1.39122 -3.07579,0.45143 -3.0758,0.45143 0.6424,-4.84265 0.64241,-4.84265 -1.53445,0 -1.53444,0 -0.0789,1.25 -0.0789,1.25 -0.50438,-1.25 -0.50439,-1.25 -1.41666,0 -1.41667,0 -0.0789,1.25 -0.0789,1.25 -0.50439,-1.25 c -0.2774,-0.6875 -0.92002,-1.25 -1.42803,-1.25 l -0.92364,0 0.65058,7 0.65058,7 -3.46182,0 -3.46181,0 -4.18179,3.214 -4.18178,3.214 0,6.16672 0,6.16672 -9.25,0.40658 -9.25,0.40657 -4.92291,2.38562 -4.92291,2.38561 -3.7856,3.7856 -3.7856,3.7856 -2.29149,4.29149 -2.29149,4.29149 0,18.5 0,18.5 2.16315,4.03993 2.16316,4.03993 3.92147,4.04081 3.92147,4.0408 4.91537,2.39262 4.91538,2.39261 10.11937,0.38523 10.11938,0.38524 3.16216,8.32469 3.16217,8.3247 3.97347,5.95032 3.97347,5.95032 6.92632,6.53393 6.92631,6.53393 8.31867,4.09084 8.31868,4.09084 7.5,1.99643 7.5,1.99644 11,-0.36423 11,-0.36422 9,-2.95452 z"
         id="path3303"
         style="fill:#6f0606" />
    </g>
    <text
       x="280.22546"
       y="352.38965"
       transform="scale(1.0000126,0.99998738)"
       id="text3037"
       xml:space="preserve"
       style="font-size:16.00020027px;font-style:normal;font-variant:normal;font-weight:bold;font-stretch:normal;text-align:center;line-height:125%;letter-spacing:0px;word-spacing:0px;writing-mode:lr-tb;text-anchor:middle;fill:#fc0303;fill-opacity:1;stroke:none;font-family:Liberation Sans;-inkscape-font-specification:Liberation Sans Bold"><tspan
         x="280.22546"
         y="352.38965"
         id="tspan3039"
         style="font-size:16.00020027px;font-style:normal;font-variant:normal;font-weight:bold;font-stretch:normal;text-align:center;line-height:125%;writing-mode:lr-tb;text-anchor:middle;font-family:Liberation Sans;-inkscape-font-specification:Liberation Sans Bold">Austrian Perl Workshop</tspan></text>
    <text
       x="283.0015"
       y="372.65823"
       id="text3047"
       xml:space="preserve"
       style="font-size:40px;font-style:normal;font-weight:normal;line-height:125%;letter-spacing:0px;word-spacing:0px;fill:#000000;fill-opacity:1;stroke:none;font-family:Sans"><tspan
         x="283.0015"
         y="372.65823"
         id="tspan3049"
         style="font-size:16px;font-style:normal;font-variant:normal;font-weight:bold;font-stretch:normal;text-align:center;line-height:125%;writing-mode:lr-tb;text-anchor:middle;fill:#ff0000;font-family:Liberation Sans;-inkscape-font-specification:Liberation Sans Bold">2014</tspan></text>
  </g>
</svg>
